<svg width="17" height="24" viewBox="0 0 17 24" fill="none" xmlns="http://www.w3.org/2000/svg">
<g clip-path="url(#clip0)">
<path d="M8.57948 5.25964C6.86889 5.25964 5.47656 6.63634 5.47656 8.32774C5.47656 10.0191 6.86889 11.3958 8.57948 11.3958C10.2901 11.3958 11.6824 10.0191 11.6824 8.32774C11.6824 6.63634 10.2901 5.25964 8.57948 5.25964ZM8.57948 10.5192C7.35737 10.5192 6.36311 9.53614 6.36311 8.32774C6.36311 7.11935 7.35737 6.13624 8.57948 6.13624C9.80159 6.13624 10.7959 7.11935 10.7959 8.32774C10.7959 9.53614 9.80159 10.5192 8.57948 10.5192Z" fill="#296B57"/>
<path d="M14.5117 2.46193C12.9061 0.874409 10.7713 0 8.50086 0C6.22997 0 4.09561 0.874409 2.49007 2.46193C-0.481197 5.39942 -0.850444 10.9264 1.6904 14.275L8.50086 24L15.3011 14.2886C17.8522 10.9264 17.4829 5.39942 14.5117 2.46193ZM14.5821 13.7762L8.50086 22.4598L2.40984 13.7626C0.105255 10.7243 0.435493 5.73297 3.1173 3.08169C4.55528 1.65984 6.46712 0.8766 8.50086 0.8766C10.5346 0.8766 12.4464 1.65984 13.8849 3.08169C16.5667 5.73297 16.8969 10.7243 14.5821 13.7762Z" fill="#296B57"/>
</g>
<defs>
<clipPath id="clip0">
<rect width="17" height="24" fill="white"/>
</clipPath>
</defs>
</svg>
