<svg width="24" height="16" viewBox="0 0 24 16" fill="none" xmlns="http://www.w3.org/2000/svg">
<path d="M23.0112 0.28125H0.988783C0.442688 0.28125 0 0.723938 0 1.27003V14.7299C0 15.276 0.442688 15.7187 0.988783 15.7187H23.0112C23.5573 15.7187 24 15.276 24 14.7299V1.27003C24 0.723938 23.5573 0.28125 23.0112 0.28125ZM0.988783 1.05778H23.0112C23.1041 1.05823 23.1859 1.11906 23.2131 1.20791L12 8.21222L0.786885 1.20791C0.814064 1.11906 0.895859 1.05823 0.988783 1.05778ZM0.776532 2.09316L8.84211 7.13026L0.776532 13.5289V2.09316ZM23.2235 14.7247C23.2235 14.842 23.1284 14.937 23.0112 14.937H0.988783C0.871592 14.937 0.776532 14.8419 0.776532 14.7247V14.5177L9.54098 7.591L11.7929 8.99911C11.9194 9.0789 12.0806 9.0789 12.2071 8.99911L14.459 7.591L23.2235 14.5177V14.7247ZM23.2235 13.5289L15.1372 7.15096L23.2235 2.13975V13.5289Z" fill="#296B57"/>
</svg>
