<svg width="24" height="24" viewBox="0 0 24 24" fill="none" xmlns="http://www.w3.org/2000/svg">
<g clip-path="url(#clip0)">
<path d="M19.2892 24C18.2906 24 17.0846 23.7498 15.7583 23.2493C12.8506 22.1531 9.68706 19.9864 6.85043 17.1498C4.01299 14.3124 1.84636 11.148 0.749322 8.24032C-0.247617 5.59661 -0.250039 3.42676 0.743671 2.43385C0.886552 2.29097 1.03186 2.1376 1.182 1.97938C2.08853 1.02603 3.11292 -0.0467914 4.47069 0.00164291C5.40628 0.0403903 6.31281 0.621602 7.24113 1.77676C9.98413 5.18815 8.74744 6.40385 7.3162 7.81329L7.06354 8.06353C6.82944 8.29763 6.38707 9.38175 10.5024 13.4971C11.8456 14.8403 12.9911 15.8235 13.9065 16.4184C14.4829 16.793 15.5137 17.3597 15.9367 16.9367L16.191 16.68C17.5988 15.252 18.8145 14.0193 22.2235 16.7599C23.3786 17.6882 23.959 18.594 23.9978 19.5312C24.0535 20.8881 22.9726 21.9149 22.0184 22.8207C21.861 22.9708 21.7076 23.1161 21.5648 23.2582C21.0715 23.7522 20.2829 24 19.2892 24ZM4.37382 0.807267C3.40917 0.807267 2.53816 1.72429 1.76725 2.53556C1.61226 2.69863 1.46211 2.85684 1.31439 3.00457C0.574151 3.744 0.649224 5.68702 1.5049 7.95617C2.56238 10.7589 4.66362 13.8216 7.42195 16.5799C10.1795 19.3366 13.2405 21.4379 16.0441 22.4945C18.3132 23.3518 20.2562 23.4245 20.9949 22.6858C21.1426 22.5381 21.3008 22.388 21.4639 22.2338C22.2929 21.4459 23.2333 20.5531 23.1922 19.5626C23.1639 18.8821 22.6683 18.15 21.7189 17.3871C18.8783 15.1026 18.084 15.9091 16.7665 17.2451L16.5082 17.5058C15.8786 18.1363 14.8558 17.9966 13.4674 17.0941C12.5043 16.4677 11.3145 15.449 9.93246 14.0662C6.51704 10.6515 5.42484 8.5616 6.49363 7.49039L6.75114 7.23611C8.09035 5.9187 8.89839 5.12357 6.6131 2.28128C5.84865 1.33278 5.11729 0.837135 4.43679 0.808074C4.4158 0.807267 4.39481 0.807267 4.37382 0.807267Z" fill="#296B57"/>
</g>
<defs>
<clipPath id="clip0">
<rect width="24" height="24" fill="white"/>
</clipPath>
</defs>
</svg>
