<?xml version="1.0" encoding="utf-8"?>
<svg width="218" height="47" viewBox="0 0 218 47" fill="none" xmlns="http://www.w3.org/2000/svg">
<path fill-rule="evenodd" clip-rule="evenodd" d="M20.1747 24.7234L19.1752 30.4774C18.7283 34.7857 18.9935 39.8375 16.1852 43.4565C15.3206 44.5708 13.9762 44.6932 12.7726 44.1093C5.29953 40.4782 -1.10438 8.58756 8.9846 2.96948C12.2177 1.16827 17.236 3.6398 19.6186 5.73103L19.7395 5.6886L20.5734 5.33849C24.9251 3.40768 31.2826 1.16849 34.5524 6.74203C39.7969 15.6827 32.8278 31.6252 30.031 41.4998C29.4472 42.7716 28.098 44.1718 26.5974 43.6961C25.3674 43.3055 24.5276 41.9621 24.0715 40.8072C22.3171 36.3546 22.3952 31.5877 21.1113 27.0124C20.8678 26.1434 20.5545 25.42 20.1745 24.7234L20.1747 24.7234Z" fill="#009EE0"/>
<path fill-rule="evenodd" clip-rule="evenodd" d="M22.7588 24.5371C24.9421 29.6627 24.0505 35.6434 26.6453 40.6086L26.9131 40.9854C27.588 40.0497 28.5554 38.9631 28.848 37.8591C31.6809 30.6106 37.7588 12.1214 31.6991 6.71489C27.6042 2.01197 23.0572 8.53698 19.125 8.81037C18.7724 8.83501 18.3634 8.77286 18.0704 8.55274C16.1142 7.08353 14.3101 5.04412 11.6444 5.3806C10.5356 5.52015 9.3168 6.6798 8.67855 7.33497C2.12698 12.2234 7.47006 36.767 13.4798 41.6302L13.6897 41.7658L13.7909 41.8057L13.8172 41.7787L14.0914 41.383C16.7898 36.2621 15.9446 28.7203 17.4587 22.8555C19.0906 18.6666 21.4648 22.418 22.7588 24.5371Z" fill="white"/>
<path fill-rule="evenodd" clip-rule="evenodd" d="M58.2284 7.68188C58.5702 6.38009 58.8352 5.45661 59.0232 4.91127C59.6726 3.11695 60.4931 2.21979 61.4843 2.21979C61.8775 2.21979 62.1594 2.36494 62.3304 2.65516C62.5013 2.94547 62.5868 3.40717 62.5868 4.04051C62.5868 4.56823 62.2877 5.71608 61.6894 7.48399C61.0912 9.2519 60.4931 11.0066 59.8949 12.7482C59.1941 14.824 58.7839 16.284 58.6643 17.1284C59.5017 17.2164 60.0401 17.3966 60.2794 17.6693C60.5187 17.942 60.6383 18.3773 60.6383 18.9755C60.6383 19.3977 60.5016 20.0397 60.2282 20.9017C60.0401 21.4822 59.788 22.1595 59.4719 22.9335C59.1556 23.7075 58.8779 24.2396 58.6386 24.5299C58.3993 24.8201 58.1088 24.9653 57.7669 24.9653C56.8269 24.9653 56.2885 24.5959 56.1518 23.857C56.1176 23.6283 56.2458 22.9863 56.5364 21.9308C56.7243 21.2799 56.8355 20.8577 56.8697 20.6642C56.2373 20.6642 55.5066 20.6686 54.6777 20.6774C53.8487 20.6862 52.9215 20.6994 51.8961 20.717C51.1611 20.717 50.5159 20.7258 49.9605 20.7434C49.405 20.761 48.8709 20.7786 48.3581 20.7961C47.5377 20.7961 46.9609 20.7082 46.6276 20.5323C46.2943 20.3564 46.1277 19.987 46.1277 19.4241C46.1277 18.8963 46.5037 17.4098 47.2558 14.9647C47.683 13.5749 48.1188 12.1852 48.5633 10.7955C49.1272 8.9133 49.6912 7.03099 50.2553 5.14876C50.9389 3.31926 51.7422 2.40447 52.6652 2.40447C52.9215 2.40447 53.1864 2.54528 53.4599 2.82673C53.7334 3.10817 53.8701 3.41603 53.8701 3.75021C53.8701 4.4011 53.4429 6.0811 52.5882 8.79012C51.99 10.6373 51.5543 12.0005 51.2807 12.8801C50.956 13.9531 50.6398 15.0174 50.3322 16.0729C50.1271 16.6886 49.9732 17.0492 49.8707 17.1548C50.0417 17.1724 50.2425 17.1855 50.4732 17.1944C50.7039 17.2032 50.9474 17.2076 51.2038 17.2076C51.7166 17.2076 52.3191 17.1987 53.0112 17.1812C53.7035 17.1636 54.4426 17.1371 55.2289 17.102C55.6733 15.7826 56.0407 14.692 56.3313 13.83C56.844 12.3348 57.1688 11.3584 57.3055 10.9011C57.6131 9.93355 57.9208 8.86048 58.2284 7.68188ZM73.0467 9.15956C73.0467 9.95118 72.9955 10.5316 72.8929 10.9011C72.722 11.552 72.3204 12.2996 71.688 13.144C71.1752 13.9004 70.5001 14.5601 69.6626 15.123C68.6371 15.7035 67.6202 16.284 66.6118 16.8645C66.646 17.0756 66.693 17.2383 66.7528 17.3527C66.8126 17.4671 66.9109 17.5242 67.0476 17.5242C67.7826 17.5242 68.7482 17.3571 69.9446 17.0228C70.961 16.7389 71.9775 16.4422 72.994 16.1329C73.1739 16.0781 73.3539 16.0229 73.5338 15.9674C73.756 15.9674 73.9141 16.0465 74.0081 16.2049C74.1021 16.3632 74.1491 16.583 74.1491 16.8645C74.1491 17.0481 74.0541 17.2497 73.8642 17.4692C73.4171 17.986 72.4439 18.6024 70.9445 19.3185C68.808 20.3388 67.0135 20.8489 65.5606 20.8489C64.7745 20.8489 64.1164 20.3827 63.5866 19.4504C63.1422 18.6588 62.92 17.8321 62.92 16.9701C62.92 14.5776 63.7704 12.304 65.4709 10.1491C67.1715 7.99416 68.9362 6.91667 70.765 6.91667C71.4487 6.91667 71.9999 7.12333 72.4186 7.53672C72.8373 7.95013 73.0467 8.49104 73.0467 9.15956ZM69.7652 9.97751C69.4917 9.97751 69.2695 10.0259 69.0986 10.1227C68.9277 10.2194 68.6628 10.4437 68.3038 10.7955C67.962 11.165 67.586 11.7807 67.1758 12.6427C66.9536 13.1176 66.6887 13.7597 66.3811 14.5688C66.9451 14.2698 67.5347 13.8652 68.15 13.3551C68.5773 13.0032 68.9533 12.6514 69.278 12.2996C69.6712 11.8774 69.8763 11.6575 69.8933 11.64C70.1497 11.3232 70.2779 10.9714 70.2779 10.5844C70.2266 10.4437 70.1839 10.3469 70.1497 10.2942C70.03 10.0831 69.9019 9.97751 69.7652 9.97751ZM105.17 21.0864C104.521 21.0864 103.952 20.9237 103.465 20.5983C102.978 20.2729 102.615 19.8286 102.376 19.2657C102.273 19.0018 102.205 18.7116 102.171 18.395C102.136 18.0783 102.119 17.7177 102.119 17.3131C102.119 17.0492 102.128 16.6754 102.145 16.1917C102.162 15.7079 102.171 15.3781 102.171 15.2022C101.265 16.2752 100.359 17.3483 99.4531 18.4214C97.949 20.0397 96.8124 20.8489 96.0433 20.8489C95.5647 20.8489 95.2143 20.6379 94.9922 20.2157C94.8383 19.9342 94.7614 19.6352 94.7614 19.3185L95.8638 14.5952C95.9151 14.4545 96.0006 14.1071 96.1202 13.5529C96.2398 12.9988 96.3339 12.6514 96.4022 12.5107C96.2826 12.6338 95.6588 13.5222 94.5307 15.1758C93.3514 16.8997 92.3345 18.2455 91.4798 19.213C90.2322 20.6202 89.2409 21.3239 88.506 21.3239C88.0274 21.3239 87.6813 21.1304 87.4676 20.7434C87.254 20.3564 87.1472 19.9166 87.1472 19.4241C87.3181 18.6676 87.4634 18.0607 87.583 17.6034C87.8394 16.6006 88.1642 15.3956 88.5572 13.9883C88.8648 12.5283 89.1811 11.0594 89.5058 9.58174C89.9502 8.03369 90.6852 7.25971 91.7106 7.25971C92.0354 7.25971 92.2618 7.34327 92.39 7.5104C92.5182 7.67745 92.5823 7.93692 92.5823 8.28881C92.5823 8.42953 92.5694 8.61864 92.5438 8.85614C92.5182 9.09355 92.5054 9.2387 92.5054 9.29152C92.5054 9.60814 92.2661 10.7339 91.7875 12.669C91.6166 13.5661 91.4457 14.4545 91.2748 15.334C91.4628 15.334 92.061 14.6832 93.0694 13.3815C94.5392 11.4816 95.5049 10.2678 95.9664 9.7401C97.1286 8.42068 97.9747 7.76102 98.5044 7.76102C98.7266 7.76102 98.9916 7.92815 99.2992 8.2624C99.6752 8.66703 99.8632 9.07157 99.8632 9.47619C99.8119 9.98636 99.5556 11.2793 99.0941 13.3551C98.7523 14.8327 98.5643 15.6683 98.5301 15.8618C99.2137 14.9822 99.906 14.0939 100.607 13.1968C101.786 11.6839 102.786 10.4701 103.606 9.55533C104.7 8.324 105.409 7.70828 105.734 7.70828C106.059 7.70828 106.328 7.8094 106.542 8.01171C106.755 8.21402 106.862 8.51745 106.862 8.92207C106.862 9.20352 106.76 9.59937 106.555 10.1095C106.059 11.3409 105.785 12.1632 105.734 12.5766C105.683 12.99 105.632 13.4958 105.58 14.0939C105.529 14.692 105.503 15.2022 105.503 15.6244C105.503 16.0993 105.55 16.5039 105.644 16.8381C105.738 17.1724 105.973 17.5154 106.349 17.8673C106.725 18.2191 106.913 18.5093 106.913 18.738C106.913 19.0898 106.734 19.5472 106.375 20.1101C105.965 20.761 105.563 21.0864 105.17 21.0864ZM119.988 11.5871C119.988 13.3111 119.177 15.2549 117.553 17.4187C115.844 19.7055 114.22 20.8489 112.682 20.8489C112.357 20.8489 111.977 20.7522 111.541 20.5586C111.105 20.3652 110.699 20.1365 110.323 19.8727C110.152 20.5059 109.96 21.3722 109.746 22.4717C109.533 23.5712 109.4 24.3496 109.349 24.8069C109.298 25.2643 109.238 25.9284 109.169 26.7991C109.101 27.67 109.046 28.312 109.003 28.7254C108.96 29.1388 108.828 29.4422 108.605 29.6358C108.383 29.8292 107.939 29.926 107.272 29.926C106.657 29.926 106.238 29.6974 106.016 29.2399C105.862 28.9057 105.785 28.3868 105.785 27.6831C105.785 27.085 106.153 25.2555 106.888 22.1947C107.982 17.6209 108.571 15.1494 108.657 14.7799C108.845 13.9004 109.101 12.8713 109.426 11.6927C109.751 10.5141 110.058 9.46742 110.349 8.55263C110.571 7.86655 110.887 7.41797 111.297 7.20689C111.554 7.0838 111.955 7.02221 112.502 7.02221C112.861 7.02221 113.1 7.10135 113.22 7.25971C113.34 7.41797 113.4 7.66433 113.4 7.99851C113.4 8.33277 113.357 8.70221 113.271 9.10676C113.972 8.49104 114.562 8.02491 115.04 7.70828C115.878 7.16294 116.57 6.89026 117.117 6.89026C118.16 6.89026 118.899 7.22452 119.335 7.89296C119.77 8.56149 119.988 9.79282 119.988 11.5871ZM116.63 12.0093C116.63 11.2881 116.604 10.8307 116.553 10.6373C116.45 10.2854 116.237 10.1095 115.912 10.1095C114.887 10.1095 114.049 10.558 113.4 11.4552C112.989 12.0181 112.494 13.0472 111.913 14.5424C111.725 14.9999 111.524 15.5672 111.31 16.2444C111.097 16.9217 110.955 17.3835 110.887 17.6298C110.973 17.4539 111.105 17.2999 111.285 17.168C111.464 17.036 111.656 16.9701 111.861 16.9701C112.032 16.9876 112.229 17.1108 112.451 17.3395C112.673 17.5682 112.93 17.6825 113.22 17.6825C113.921 17.6825 114.664 16.9744 115.451 15.5583C116.237 14.1422 116.63 12.9593 116.63 12.0093Z" fill="#007225"/>
<path d="M72.994 16.1329C73.1739 16.0781 73.3539 16.0229 73.5338 15.9674C73.756 15.9674 73.9141 16.0465 74.0081 16.2049C74.1021 16.3632 74.1491 16.583 74.1491 16.8645C74.1491 17.0481 74.0541 17.2497 73.8642 17.4692L73.8286 18.0651C73.7518 18.4785 73.6877 18.9403 73.6364 19.4504C73.6364 19.7671 73.7091 20.0749 73.8543 20.374C73.9996 20.673 74.2261 20.8225 74.5337 20.8225C75.0294 20.8225 75.5165 20.6818 75.995 20.4004C76.559 20.0661 76.888 19.6439 76.982 19.1338C77.0761 18.6236 77.1401 18.2014 77.1743 17.8673C77.294 16.8645 77.405 16.1697 77.5076 15.7826C78.328 15.6067 78.8237 15.5012 78.9946 15.466C79.8321 15.3077 80.4559 15.2285 80.8661 15.2285C81.3617 15.2285 81.8403 15.2813 82.3018 15.3869C82.1309 16.3192 82.0454 17.102 82.0454 17.7353C82.0454 17.9991 82.054 18.1927 82.071 18.3158C82.1565 18.9139 82.3573 19.4548 82.6735 19.9386C82.9897 20.4223 83.3615 20.6642 83.7887 20.6642C84.1989 20.6642 84.6903 20.4047 85.2629 19.8858C85.8354 19.3668 86.1388 18.9843 86.173 18.738C86.2071 18.5973 86.1089 18.2586 85.8781 17.7221C85.6474 17.1855 85.532 16.6622 85.532 16.1521C85.532 15.6771 85.7115 14.7008 86.0704 13.2231C86.4294 11.7455 86.7968 10.259 87.1728 8.76371V8.05132C87.1728 7.71706 87.1258 7.47079 87.0318 7.31244C86.9379 7.15416 86.737 7.07503 86.4294 7.07503C86.1046 7.07503 85.7201 7.20689 85.2757 7.47079C84.8313 7.73469 84.5151 8.07772 84.3271 8.4999C83.8657 9.5026 83.4469 10.6108 83.0709 11.8246C82.5752 11.8246 81.93 11.8774 81.1353 11.9829C80.3405 12.0885 79.5158 12.2204 78.6613 12.3788C78.8151 11.9214 79.0544 11.2705 79.3791 10.4261C79.8064 9.28265 80.0372 8.64062 80.0714 8.4999C80.1226 8.11291 79.9004 7.77865 79.4048 7.4972C78.9091 7.21575 78.4818 7.09257 78.1229 7.12776C77.8665 7.16294 77.4991 7.61151 77.0205 8.47349C76.6445 9.15956 76.2599 9.98636 75.8669 10.9539C75.5933 11.64 75.3199 12.4491 75.0464 13.3815C74.3457 13.6277 73.7731 13.9224 73.3288 14.2654C72.8844 14.6085 72.6622 14.9647 72.6622 15.334C72.6622 15.6822 72.7728 15.9484 72.994 16.1329Z" fill="#007225"/>
<path fill-rule="evenodd" clip-rule="evenodd" d="M120.809 43.3634C122.928 42.2551 124.022 41.6835 124.091 41.6483C124.415 41.4733 124.733 41.2373 125.043 40.9402C125.05 40.9118 125.058 40.884 125.065 40.8567C125.186 40.3814 125.323 39.8606 125.475 39.2944L125.437 39.2602C125.291 39.1108 125.031 39.036 124.655 39.036C124.484 39.036 123.774 39.2954 122.527 39.8144C121.279 40.3333 120.553 40.5928 120.348 40.5928C120.228 40.5928 120.168 40.4345 120.168 40.1179C120.168 39.8364 120.219 39.4098 120.322 38.8381C120.424 38.2664 120.518 37.8134 120.604 37.4791C120.912 36.3709 121.219 35.2451 121.527 34.1017C121.834 32.9582 121.988 32.0874 121.988 31.4893C121.988 31.1199 121.856 30.8868 121.591 30.7901C121.326 30.6934 120.997 30.645 120.604 30.645C120.296 30.645 119.997 30.8121 119.707 31.1463C119.484 31.4806 119.262 31.806 119.04 32.1226C119.04 31.6477 118.792 31.2606 118.297 30.9616C117.938 30.7505 117.579 30.645 117.22 30.645C116.143 30.645 114.87 31.4454 113.4 33.0462C112.169 34.3831 111.033 36.0015 109.99 37.9014C109.016 39.6781 108.529 40.927 108.529 41.6483C108.529 42.176 108.772 42.673 109.259 43.1391C109.747 43.6053 110.315 43.8384 110.964 43.8384C111.836 43.8384 112.955 43.2491 114.323 42.0705C115.28 41.1381 116.246 40.2058 117.22 39.2735C117.168 39.6077 117.083 40.1267 116.963 40.8303C116.844 41.534 116.784 42.1585 116.784 42.7037C116.784 43.126 116.955 43.4953 117.297 43.812C117.639 44.1287 118.066 44.287 118.579 44.287C118.886 44.287 119.63 43.9791 120.809 43.3634ZM113.823 36.4632C115.096 34.5722 116.083 33.6267 116.784 33.6267C117.109 33.6267 117.271 33.8026 117.271 34.1544C117.271 34.2951 117.254 34.4974 117.22 34.7613C117.22 35.4298 116.656 36.3533 115.528 37.5319C114.554 38.5522 113.349 39.5725 111.913 40.5928C111.913 39.7308 112.55 38.3543 113.823 36.4632Z" fill="#007225"/>
<path d="M182.236 32.7823C182.187 32.7899 182.138 32.7983 182.088 32.8073C181.793 33.2095 181.646 33.5881 181.646 33.9433C181.646 34.2072 181.757 34.4887 181.979 34.7877C182.321 35.2275 182.629 35.4474 182.902 35.4474C183.33 35.4474 183.834 35.1659 184.415 34.603C184.996 34.0401 185.509 33.7586 185.953 33.7586C186.158 33.7586 186.261 33.8201 186.261 33.9433C186.261 34.3831 186.175 34.7173 186.004 34.946C185.765 35.2803 185.141 35.8608 184.133 36.6875C183.278 37.3736 182.68 37.875 182.338 38.1916C181.074 39.3526 180.441 40.3201 180.441 41.0942C180.441 41.9737 180.826 42.7126 181.595 43.3107C182.295 43.856 183.116 44.1287 184.056 44.1287C185.159 44.1287 186.503 43.5256 188.087 42.3195L189.546 41.0141C189.665 40.5282 189.817 39.9655 190.004 39.3263C190.088 39.0354 190.165 38.7696 190.234 38.5287C190.107 38.4095 189.944 38.3499 189.747 38.3499C188.807 38.9129 187.88 39.4582 186.966 39.9859C186.051 40.5136 185.235 40.7775 184.517 40.7775C184.261 40.7775 184.133 40.672 184.133 40.4609C184.133 40.0915 184.381 39.6517 184.876 39.1415L186.568 37.5584C187.457 36.6964 188.055 36.063 188.363 35.6585C189.047 34.7437 189.388 33.5827 189.388 32.1754C189.388 31.5421 189.111 31.0408 188.555 30.6713C188 30.3019 187.355 30.1172 186.62 30.1172C185.739 30.1172 184.7 30.566 183.501 31.4635C183.456 31.7384 183.325 32.0021 183.107 32.2545C182.834 32.5712 182.543 32.7471 182.236 32.7823Z" fill="#007225"/>
<path fill-rule="evenodd" clip-rule="evenodd" d="M54.6139 42.0705C56.135 40.8567 56.8955 39.8804 56.8955 39.1415C56.8955 38.8425 56.8186 38.583 56.6648 38.3631C56.511 38.1432 56.2461 38.0333 55.8701 38.0333C54.7762 38.6314 53.6909 39.2207 52.6141 39.8012C51.6229 40.329 50.8708 40.5928 50.3581 40.5928C49.9649 40.5928 49.7684 40.3729 49.7684 39.9331C49.7684 38.7193 50.2769 37.4088 51.2938 36.0015C52.3108 34.5942 53.3319 33.7498 54.3575 33.4683C54.8531 33.3276 55.4514 33.2045 56.152 33.099C56.5965 32.9582 56.8186 32.5888 56.8186 31.9907C56.8186 31.5157 56.6221 31.1419 56.229 30.8693C55.8359 30.5966 55.3915 30.4602 54.8959 30.4602C53.7507 30.4602 52.4774 31.0672 51.0759 32.2809C49.9308 33.2837 48.8455 34.5414 47.82 36.0543C47.2902 36.8811 46.8544 37.8661 46.5125 39.0096C46.2561 39.8892 46.1279 40.5665 46.1279 41.0414C46.1279 42.0089 46.3245 42.7873 46.7176 43.3766C47.1107 43.9659 47.7431 44.2606 48.6147 44.2606C50.7683 44.2606 52.768 43.5305 54.6139 42.0705ZM72.7265 43.8516C73.2136 44.177 73.7819 44.3398 74.4314 44.3398C74.8245 44.3398 75.2261 44.0143 75.6364 43.3634C75.9952 42.8005 76.1747 42.3431 76.1747 41.9913C76.1747 41.7626 75.9867 41.4724 75.6107 41.1206C75.2347 40.7687 74.9997 40.4257 74.9057 40.0915C74.8116 39.7572 74.7647 39.3526 74.7647 38.8777C74.7647 38.4555 74.7903 37.9453 74.8416 37.3472C74.8928 36.7491 74.9441 36.2434 74.9954 35.83C75.0467 35.4166 75.3201 34.5942 75.8158 33.3628C76.0209 32.8527 76.1234 32.4569 76.1234 32.1754C76.1234 31.7708 76.0166 31.4674 75.803 31.265C75.5894 31.0627 75.3201 30.9616 74.9954 30.9616C74.6707 30.9616 73.9614 31.5773 72.8675 32.8087C72.0472 33.7235 71.0473 34.9372 69.868 36.4501C69.1672 37.3472 68.475 38.2356 67.7914 39.1152C67.8255 38.9216 68.0136 38.0861 68.3554 36.6084C68.8169 34.5326 69.0732 33.2397 69.1245 32.7295C69.1245 32.3249 68.9365 31.9204 68.5605 31.5157C68.2528 31.1815 67.9879 31.0143 67.7657 31.0143C67.2359 31.0143 66.3898 31.674 65.2277 32.9934C64.7662 33.5211 63.8005 34.7349 62.3307 36.6348C61.3223 37.9366 60.7241 38.5874 60.536 38.5874C60.7069 37.7079 60.8779 36.8195 61.0488 35.9223C61.5274 33.9873 61.7666 32.8615 61.7666 32.5448C61.7666 32.492 61.7795 32.3469 61.8051 32.1095C61.8307 31.872 61.8435 31.6829 61.8435 31.5421C61.8435 31.1903 61.7795 30.9308 61.6513 30.7637C61.5231 30.5966 61.2966 30.513 60.9719 30.513C59.9464 30.513 59.2115 31.287 58.767 32.8351C58.4424 34.3128 58.1261 35.7816 57.8185 37.2416C57.4254 38.649 57.1007 39.854 56.8443 40.8567C56.7247 41.314 56.5793 41.921 56.4084 42.6774C56.4084 43.1699 56.5153 43.6097 56.7289 43.9967C56.9426 44.3837 57.2886 44.5773 57.7673 44.5773C58.5022 44.5773 59.4935 43.8736 60.7411 42.4663C61.5957 41.4988 62.6127 40.1531 63.792 38.4291C64.92 36.7755 65.5438 35.8871 65.6635 35.764C65.5951 35.9048 65.5011 36.2521 65.3814 36.8063C65.2619 37.3604 65.1764 37.7079 65.1251 37.8486L64.0227 42.5719C64.0227 42.8885 64.0996 43.1875 64.2535 43.469C64.4756 43.8912 64.826 44.1023 65.3046 44.1023C66.0737 44.1023 67.2103 43.293 68.7143 41.6747L71.4318 38.4555C71.4318 38.6314 71.4233 38.9613 71.4062 39.445C71.3891 39.9288 71.3806 40.3026 71.3806 40.5665C71.3806 40.971 71.3976 41.3317 71.4318 41.6483C71.466 41.9649 71.5344 42.2551 71.6369 42.5191C71.8762 43.0819 72.2394 43.5262 72.7265 43.8516ZM87.9678 33.1781C88.6172 32.9846 89.1642 32.8527 89.6086 32.7823C89.9162 32.7471 90.2068 32.5712 90.4802 32.2545C90.7537 31.9379 90.8904 31.6036 90.8904 31.2518C90.8904 31.0759 90.7622 30.9308 90.5059 30.8165C90.2495 30.7021 89.9504 30.645 89.6086 30.645C88.2412 30.645 87.0961 30.7417 86.1732 30.9352C84.6349 31.2518 83.8658 31.8324 83.8658 32.6767C83.8658 33.0462 83.9599 33.5915 84.1478 34.3128C84.3358 35.034 84.4299 35.5529 84.4299 35.8696C84.4299 37.013 84.0794 38.1477 83.3788 39.2735C82.6096 40.5049 81.7465 41.1206 80.7894 41.1206C80.3792 41.1206 80.0673 40.993 79.8536 40.7379C79.64 40.4829 79.5331 40.1794 79.5331 39.8276C79.5331 39.1063 79.8921 38.1477 80.6099 36.9514C81.2765 35.9664 81.9516 34.9636 82.6352 33.9433C83.3189 32.9231 83.6607 32.1666 83.6607 31.674C83.6607 31.4277 83.5454 31.2035 83.3146 31.0011C83.0839 30.7989 82.866 30.6977 82.6609 30.6977C82.2165 30.6977 81.7295 30.9264 81.1996 31.3838C80.4817 31.9995 79.5759 33.1077 78.482 34.7085C78.0206 35.377 77.6019 36.2478 77.2258 37.3209C76.7302 38.6929 76.4823 39.9595 76.4823 41.1206C76.4823 42.2816 76.8669 43.1348 77.636 43.6801C78.2 44.0847 78.9179 44.287 79.7895 44.287C80.6783 44.287 81.3705 44.1991 81.8662 44.0231C82.3618 43.8472 82.8831 43.5218 83.43 43.0468C84.6777 41.9562 85.6262 40.8655 86.2757 39.7748C87.1132 38.3675 87.5319 36.8811 87.5319 35.3155C87.5319 34.6821 87.4636 34.2599 87.3268 34.0489C87.2585 33.9258 87.1132 33.7058 86.891 33.3892C87.1303 33.3892 87.4892 33.3188 87.9678 33.1781ZM100.133 31.4102C99.9019 31.0584 99.6755 30.8825 99.4532 30.8825C99.3336 30.8825 99.1798 30.8648 98.9917 30.8297C98.8038 30.7945 98.6585 30.7769 98.5559 30.7769C98.3679 30.7769 98.103 30.8252 97.7612 30.922C97.4194 31.0188 96.881 31.6213 96.1461 32.7295C95.6675 33.4683 95.1206 34.4271 94.5053 35.6057C94.1635 36.2918 93.6763 37.1186 93.0439 38.0861C92.1894 39.3702 91.5399 40.0738 91.0955 40.197C90.9246 40.2322 90.7879 40.2497 90.6853 40.2497C90.5486 40.2497 90.2623 40.2146 89.8265 40.1442C89.3906 40.0738 89.1385 40.0387 89.0702 40.0387C88.6771 40.0387 88.378 40.4081 88.1729 41.1469C88.0361 41.6571 87.9678 42.1672 87.9678 42.6774C87.9678 43.0819 88.2669 43.4338 88.8651 43.7328C89.3778 43.9791 89.882 44.1023 90.3777 44.1023C90.9759 44.1023 91.5271 43.9616 92.0313 43.6801C92.5355 43.3986 93.0354 42.9105 93.5311 42.2156C94.0267 41.5208 94.6677 40.4521 95.4538 39.0096C95.9837 38.0597 96.5563 36.9514 97.1715 35.6848C97.1031 35.8608 97.0177 36.217 96.9152 36.7535C96.8127 37.29 96.7357 37.655 96.6845 37.8486L95.941 42.6774C95.941 43.1348 96.0948 43.5218 96.4024 43.8384C96.6417 44.0847 96.9494 44.2078 97.3254 44.2078C98.1115 44.2078 99.214 43.3898 100.633 41.7538C101.487 40.6631 102.342 39.5638 103.196 38.4555V38.9304C103.196 39.7397 103.23 40.4389 103.299 41.0282C103.367 41.6175 103.504 42.1496 103.709 42.6246C103.982 43.2051 104.38 43.6625 104.901 43.9967C105.422 44.3309 106.016 44.498 106.683 44.498C107.059 44.498 107.435 44.1639 107.811 43.4953C108.136 42.9148 108.298 42.4487 108.298 42.0969C108.298 41.8682 108.089 41.5692 107.67 41.1997C107.251 40.8303 106.982 40.4785 106.862 40.1442C106.743 39.81 106.666 39.379 106.632 38.8513V37.875C106.632 37.7518 106.64 37.4176 106.657 36.8723C106.674 36.3269 106.683 35.9575 106.683 35.764C106.683 35.2539 106.734 34.5942 106.837 33.785C106.939 32.9758 106.991 32.4217 106.991 32.1226C106.991 31.7004 106.879 31.3882 106.657 31.1859C106.435 30.9836 106.153 30.8825 105.811 30.8825C105.401 30.8825 104.632 31.6652 103.504 33.2308C102.444 34.691 101.094 36.7316 99.4532 39.3526C99.5216 38.8952 99.684 38.0157 99.9404 36.7139C100.299 34.6382 100.479 33.266 100.479 32.5976C100.479 32.1578 100.363 31.762 100.133 31.4102ZM140.947 43.8516C141.434 44.177 142.002 44.3398 142.652 44.3398C143.045 44.3398 143.447 44.0143 143.857 43.3634C144.216 42.8005 144.395 42.3431 144.395 41.9913C144.395 41.7626 144.207 41.4724 143.831 41.1206C143.455 40.7687 143.22 40.4257 143.126 40.0915C143.032 39.7572 142.985 39.3526 142.985 38.8777C142.985 38.4555 143.011 37.9453 143.062 37.3472C143.113 36.7491 143.165 36.2434 143.216 35.83C143.267 35.4166 143.541 34.5942 144.036 33.3628C144.241 32.8527 144.344 32.4569 144.344 32.1754C144.344 31.7708 144.237 31.4674 144.023 31.265C143.81 31.0627 143.541 30.9616 143.216 30.9616C142.891 30.9616 142.182 31.5773 141.088 32.8087C140.268 33.7235 139.268 34.9372 138.088 36.4501C137.388 37.3472 136.695 38.2356 136.012 39.1152C136.046 38.9216 136.234 38.0861 136.576 36.6084C137.037 34.5326 137.294 33.2397 137.345 32.7295C137.345 32.3249 137.157 31.9204 136.781 31.5157C136.473 31.1815 136.208 31.0143 135.986 31.0143C135.456 31.0143 134.61 31.674 133.448 32.9934C132.987 33.5211 132.021 34.7349 130.551 36.6348C129.543 37.9366 128.945 38.5874 128.757 38.5874C128.927 37.7079 129.098 36.8195 129.269 35.9223C129.748 33.9873 129.987 32.8615 129.987 32.5448C129.987 32.492 130 32.3469 130.026 32.1095C130.051 31.872 130.064 31.6829 130.064 31.5421C130.064 31.1903 130 30.9308 129.872 30.7637C129.744 30.5966 129.517 30.513 129.192 30.513C128.167 30.513 127.432 31.287 126.988 32.8351C126.663 34.3128 126.347 35.7816 126.039 37.2416C125.832 37.9819 125.644 38.6661 125.475 39.2944C125.323 39.8606 125.186 40.3814 125.065 40.8567L125.043 40.9402C124.928 41.387 124.79 41.9661 124.629 42.6774C124.629 43.1699 124.736 43.6097 124.949 43.9967C125.163 44.3837 125.509 44.5773 125.988 44.5773C126.723 44.5773 127.714 43.8736 128.962 42.4663C129.816 41.4988 130.833 40.1531 132.012 38.4291C133.14 36.7755 133.764 35.8871 133.884 35.764C133.816 35.9048 133.722 36.2521 133.602 36.8063C133.482 37.3604 133.397 37.7079 133.346 37.8486L132.243 42.5719C132.243 42.8885 132.32 43.1875 132.474 43.469C132.696 43.8912 133.046 44.1023 133.525 44.1023C134.294 44.1023 135.431 43.293 136.935 41.6747L139.652 38.4555C139.652 38.6314 139.644 38.9613 139.627 39.445C139.61 39.9288 139.601 40.3026 139.601 40.5665C139.601 40.971 139.618 41.3317 139.652 41.6483C139.686 41.9649 139.755 42.2551 139.857 42.5191C140.097 43.0819 140.46 43.5262 140.947 43.8516ZM156.188 33.1781C156.838 32.9846 157.385 32.8527 157.829 32.7823C158.137 32.7471 158.427 32.5712 158.701 32.2545C158.974 31.9379 159.111 31.6036 159.111 31.2518C159.111 31.0759 158.983 30.9308 158.726 30.8165C158.47 30.7021 158.171 30.645 157.829 30.645C156.462 30.645 155.317 30.7417 154.394 30.9352C152.855 31.2518 152.086 31.8324 152.086 32.6767C152.086 33.0462 152.18 33.5915 152.368 34.3128C152.556 35.034 152.65 35.5529 152.65 35.8696C152.65 37.013 152.3 38.1477 151.599 39.2735C150.83 40.5049 149.967 41.1206 149.01 41.1206C148.6 41.1206 148.288 40.993 148.074 40.7379C147.86 40.4829 147.754 40.1794 147.754 39.8276C147.754 39.1063 148.113 38.1477 148.83 36.9514C149.497 35.9664 150.172 34.9636 150.856 33.9433C151.539 32.9231 151.881 32.1666 151.881 31.674C151.881 31.4277 151.766 31.2035 151.535 31.0011C151.304 30.7989 151.086 30.6977 150.881 30.6977C150.437 30.6977 149.95 30.9264 149.42 31.3838C148.702 31.9995 147.796 33.1077 146.703 34.7085C146.241 35.377 145.822 36.2478 145.446 37.3209C144.951 38.6929 144.703 39.9595 144.703 41.1206C144.703 42.2816 145.087 43.1348 145.856 43.6801C146.42 44.0847 147.138 44.287 148.01 44.287C148.899 44.287 149.591 44.1991 150.087 44.0231C150.582 43.8472 151.104 43.5218 151.65 43.0468C152.898 41.9562 153.847 40.8655 154.496 39.7748C155.334 38.3675 155.752 36.8811 155.752 35.3155C155.752 34.6821 155.684 34.2599 155.547 34.0489C155.479 33.9258 155.334 33.7058 155.111 33.3892C155.351 33.3892 155.71 33.3188 156.188 33.1781ZM163.444 33.1517C163.033 33.9785 162.623 34.7965 162.213 35.6057C161.905 36.2741 161.427 37.1009 160.777 38.0861C159.923 39.3702 159.273 40.0738 158.829 40.197C158.692 40.2322 158.564 40.2497 158.444 40.2497C158.239 40.2497 157.927 40.2102 157.509 40.131C157.09 40.0519 156.863 40.0211 156.829 40.0387C156.59 40.109 156.372 40.4829 156.175 41.1601C155.979 41.8374 155.881 42.4047 155.881 42.8621C155.881 43.2139 156.133 43.5085 156.637 43.746C157.141 43.9835 157.632 44.1023 158.111 44.1023C158.709 44.1023 159.265 43.9616 159.777 43.6801C160.29 43.3986 160.786 42.9148 161.264 42.2288C161.692 41.6131 162.29 40.5488 163.059 39.036C163.486 38.2092 164.025 37.1273 164.674 35.7904C164.418 37.057 164.29 38.4027 164.29 39.8276C164.29 39.9156 164.298 40.1882 164.315 40.6456C164.332 41.103 164.379 41.5119 164.456 41.8726C164.533 42.2332 164.837 42.695 165.366 43.2579C165.896 43.8208 166.358 44.1023 166.751 44.1023C167.093 44.1023 167.528 43.8384 168.058 43.3107C168.52 42.8533 168.776 42.5103 168.827 42.2816C168.844 42.1585 168.627 41.8066 168.174 41.2261C167.721 40.6456 167.477 40.2102 167.443 39.9199C167.409 39.6297 167.392 39.3702 167.392 39.1415C167.392 38.5259 167.511 37.4352 167.751 35.8696C167.99 34.3039 168.11 33.3012 168.11 32.8615C168.11 32.2633 168.067 31.8456 167.981 31.6081C167.896 31.3706 167.665 31.2518 167.289 31.2518C166.657 31.2518 165.828 31.419 164.802 31.7532C164.358 31.8763 163.905 32.3425 163.444 33.1517ZM182.088 32.8073C182.138 32.7983 182.187 32.7899 182.236 32.7823C182.543 32.7471 182.834 32.5712 183.107 32.2545C183.325 32.0021 183.456 31.7384 183.501 31.4635C183.512 31.3937 183.518 31.3231 183.518 31.2518C183.518 31.0759 183.389 30.9308 183.133 30.8165C182.877 30.7021 182.577 30.645 182.236 30.645C180.868 30.645 179.723 30.7417 178.8 30.9352C177.262 31.2518 176.493 31.8324 176.493 32.6767C176.493 33.0462 176.587 33.5915 176.775 34.3128C176.963 35.034 177.057 35.5529 177.057 35.8696C177.057 37.013 176.707 38.1477 176.006 39.2735C175.237 40.5049 174.374 41.1206 173.417 41.1206C173.006 41.1206 172.694 40.993 172.481 40.7379C172.267 40.4829 172.16 40.1794 172.16 39.8276C172.16 39.1063 172.519 38.1477 173.237 36.9514C173.904 35.9664 174.579 34.9636 175.262 33.9433C175.946 32.9231 176.288 32.1666 176.288 31.674C176.288 31.4277 176.172 31.2035 175.942 31.0011C175.711 30.7989 175.493 30.6977 175.288 30.6977C174.844 30.6977 174.357 30.9264 173.827 31.3838C173.109 31.9995 172.203 33.1077 171.109 34.7085C170.648 35.377 170.229 36.2478 169.853 37.3209C169.357 38.6929 169.109 39.9595 169.109 41.1206C169.109 42.2816 169.494 43.1348 170.263 43.6801C170.827 44.0847 171.545 44.287 172.417 44.287C173.305 44.287 173.998 44.1991 174.493 44.0231C174.989 43.8472 175.51 43.5218 176.057 43.0468C177.305 41.9562 178.253 40.8655 178.903 39.7748C179.74 38.3675 180.159 36.8811 180.159 35.3155C180.159 34.6821 180.091 34.2599 179.954 34.0489C179.886 33.9258 179.74 33.7058 179.518 33.3892C179.757 33.3892 180.116 33.3188 180.595 33.1781C181.174 33.0055 181.672 32.882 182.088 32.8073ZM202.694 43.5218C203.207 43.0116 203.463 42.5806 203.463 42.2288C203.019 41.6131 202.575 40.9886 202.13 40.3553C201.72 39.6693 201.515 38.992 201.515 38.3236C201.515 38.2532 201.523 38.1125 201.54 37.9014C201.54 37.2857 201.703 36.5116 202.028 35.5793C202.677 33.7146 203.002 32.6415 203.002 32.3601C203.002 31.9907 202.925 31.6916 202.771 31.4629C202.617 31.2343 202.378 31.1199 202.053 31.1199C201.455 31.1199 200.882 31.3926 200.336 31.9379C199.584 32.6767 198.943 33.8642 198.413 35.5001C197.729 36.2214 197.054 36.9426 196.387 37.6639C195.123 38.9832 194.242 39.6429 193.747 39.6429C193.422 39.6429 193.26 39.467 193.26 39.1152V38.7193C193.294 38.4027 193.465 37.8046 193.772 36.925C194.08 36.0455 194.349 35.3374 194.58 34.8009C194.811 34.2644 195.054 33.6838 195.311 33.0594C195.567 32.4349 195.721 31.894 195.772 31.4366C195.772 31.2782 195.678 31.0936 195.49 30.8825C195.302 30.6713 195.097 30.5658 194.875 30.5658C194.003 30.5658 193.2 31.1903 192.465 32.4393C191.884 33.442 191.294 34.9372 190.696 36.925C190.63 37.1573 190.476 37.6918 190.234 38.5287L190.004 39.3263C189.817 39.9655 189.665 40.5282 189.546 41.0141C189.339 41.8654 189.235 42.4814 189.235 42.8621C189.2 43.2315 189.333 43.5614 189.632 43.8516C189.931 44.1418 190.277 44.287 190.67 44.287C191.61 44.287 192.55 44.0143 193.49 43.469C194.242 43.0292 195.046 42.3871 195.9 41.5428C195.917 41.5251 196.635 40.7511 198.054 39.2207C198.122 40.0123 198.216 40.6368 198.336 41.0942C198.455 41.5515 198.648 42.0309 198.913 42.5322C199.178 43.0336 199.519 43.4514 199.938 43.7856C200.357 44.1198 200.823 44.287 201.335 44.287C201.729 44.287 202.181 44.0319 202.694 43.5218ZM217.23 43.5218C217.743 43.0116 218 42.5806 218 42.2288C217.555 41.6131 217.111 40.9886 216.666 40.3553C216.256 39.6693 216.051 38.992 216.051 38.3236C216.051 38.2532 216.06 38.1125 216.077 37.9014C216.077 37.2857 216.239 36.5116 216.564 35.5793C217.213 33.7146 217.538 32.6415 217.538 32.3601C217.538 31.9907 217.461 31.6916 217.307 31.4629C217.154 31.2343 216.914 31.1199 216.589 31.1199C215.991 31.1199 215.419 31.3926 214.872 31.9379C214.12 32.6767 213.479 33.8642 212.949 35.5001C212.265 36.2214 211.59 36.9426 210.924 37.6639C209.659 38.9832 208.779 39.6429 208.283 39.6429C207.958 39.6429 207.796 39.467 207.796 39.1152V38.7193C207.83 38.4027 208.001 37.8046 208.309 36.925C208.616 36.0455 208.886 35.3374 209.116 34.8009C209.347 34.2644 209.591 33.6838 209.847 33.0594C210.103 32.4349 210.257 31.894 210.308 31.4366C210.308 31.2782 210.214 31.0936 210.026 30.8825C209.838 30.6713 209.633 30.5658 209.411 30.5658C208.539 30.5658 207.736 31.1903 207.001 32.4393C206.42 33.442 205.83 34.9372 205.232 36.925C205.147 37.2241 204.916 38.0245 204.54 39.3263C204.027 41.0854 203.771 42.264 203.771 42.8621C203.737 43.2315 203.869 43.5614 204.168 43.8516C204.467 44.1418 204.814 44.287 205.207 44.287C206.147 44.287 207.087 44.0143 208.027 43.469C208.779 43.0292 209.582 42.3871 210.437 41.5428C210.454 41.5251 211.172 40.7511 212.59 39.2207C212.658 40.0123 212.752 40.6368 212.872 41.0942C212.992 41.5515 213.184 42.0309 213.449 42.5322C213.714 43.0336 214.056 43.4514 214.474 43.7856C214.893 44.1198 215.359 44.287 215.872 44.287C216.265 44.287 216.718 44.0319 217.23 43.5218Z" fill="#007225"/>
</svg>
