<?xml version="1.0" encoding="UTF-8"?>
<!DOCTYPE svg PUBLIC "-//W3C//DTD SVG 1.1//EN" "http://www.w3.org/Graphics/SVG/1.1/DTD/svg11.dtd">
<!-- Creator: CorelDRAW 2018 (64-Bit) -->
<svg xmlns="http://www.w3.org/2000/svg" xml:space="preserve" width="805.582mm" height="214.264mm" version="1.1" style="shape-rendering:geometricPrecision; text-rendering:geometricPrecision; image-rendering:optimizeQuality; fill-rule:evenodd; clip-rule:evenodd"
viewBox="0 0 56101.46 14921.52"
 xmlns:xlink="http://www.w3.org/1999/xlink">
 <defs>
  <style type="text/css">
   <![CDATA[
    .fil2 {fill:#007225}
    .fil0 {fill:#009EE0}
    .fil1 {fill:white}
    .fil3 {fill:#2B2A29;fill-rule:nonzero}
   ]]>
  </style>
 </defs>
 <g id="Слой_x0020_1">
  <metadata id="CorelCorpID_0Corel-Layer"/>
  <g id="_932941991296">
   <g id="Layer1000">
    <path id="path4" class="fil0" d="M5990.42 7626.01l-73.76 1931.91c46.46,1432.82 367.1,3077.09 -414.45,4391.19 -240.64,404.61 -688.5,505.81 -1121.18,369.01 -2686.75,-851.06 -6306.3,-11016.03 -3160.54,-13316.22 1008.07,-737.4 2813.77,-154.99 3713.13,422.44l38.83 -19.4 265.24 -152.67c1379.41,-830.68 3421.22,-1853.59 4779.18,-174.74 2178.12,2693.12 557.19,8236.63 65.81,11601.21 -138.69,443.47 -529.69,963.82 -1057.57,876.03 -432.75,-72.2 -777.51,-474.53 -984.19,-832.45 -795.52,-1380.19 -987.35,-2946.62 -1629.82,-4388.39 -121.9,-273.83 -260.68,-496.79 -420.74,-707.92l0.07 0z"/>
    <path id="path6" class="fil1" d="M6841.19 7436.12c968.3,1579.76 937.86,3581.14 2037.71,5089.34l107.37 111.22c185.4,-337.74 462.66,-738.42 511.47,-1113.74 628.04,-2506.24 1842.68,-8846.25 -446.1,-10339.81 -1594.07,-1353.27 -2833.1,994.64 -4147.33,1265.06 -117.85,24.29 -258.64,22.72 -367.45,-35.96 -726.38,-391.64 -1427.21,-977.17 -2311.3,-744.3 -367.78,96.72 -726.54,532.89 -912.25,776.99 -1989.29,1903.64 922.81,9703.04 3170.16,11020.81l76.95 34.8 35.93 8.43 7.67 -10.06 74.59 -142.31c678.87,-1802.66 52.77,-4235.92 298.46,-6227.95 361.19,-1448.11 1331.76,-327.56 1864.11,307.56l0 -0.07z"/>
   </g>
   <path id="path9" class="fil2" d="M16773.23 1307.3c84.2,-311.57 149.46,-532.6 195.78,-663.12 159.99,-429.45 362.09,-644.18 606.28,-644.18 96.84,0 166.3,34.74 208.41,104.2 42.1,69.48 63.16,179.99 63.16,331.57 0,126.3 -73.68,401.03 -221.05,824.17 -147.36,423.13 -294.71,843.1 -442.07,1259.93 -172.62,496.82 -273.67,846.26 -303.15,1048.35 206.31,21.06 338.94,64.2 397.87,129.46 58.94,65.26 88.42,169.46 88.42,312.62 0,101.04 -33.69,254.71 -101.05,461.02 -46.32,138.94 -108.42,301.05 -186.3,486.29 -77.9,185.24 -146.32,312.61 -205.26,382.1 -58.94,69.46 -130.51,104.2 -214.73,104.2 -231.56,0 -364.19,-88.42 -397.87,-265.26 -8.42,-54.74 23.16,-208.41 94.74,-461.03 46.3,-155.79 73.68,-256.83 82.1,-303.15 -155.79,0 -335.77,1.07 -539.98,3.16 -204.2,2.12 -432.61,5.26 -685.22,9.48 -181.05,0 -339.99,2.1 -476.82,6.32 -136.84,4.19 -268.4,8.42 -394.73,12.61 -202.08,0 -344.19,-21.04 -426.29,-63.14 -82.09,-42.1 -123.13,-130.53 -123.13,-265.25 0,-126.32 92.63,-482.1 277.89,-1067.31 105.25,-332.63 212.61,-665.24 322.1,-997.85 138.92,-450.49 277.87,-901.01 416.81,-1351.5 168.4,-437.87 366.28,-656.82 593.65,-656.82 63.14,0 128.4,33.7 195.77,101.07 67.36,67.36 101.04,141.04 101.04,221.03 0,155.78 -105.24,557.87 -315.77,1206.25 -147.36,442.09 -254.7,768.38 -322.09,978.89 -79.98,256.84 -157.89,511.55 -233.67,764.18 -50.52,147.36 -88.42,233.67 -113.68,258.92 42.12,4.22 91.58,7.36 148.42,9.49 56.84,2.1 116.82,3.15 179.99,3.15 126.3,0 274.73,-2.12 445.23,-6.32 170.53,-4.22 352.61,-10.54 546.3,-18.96 109.46,-315.77 199.98,-576.79 271.57,-783.1 126.3,-357.87 206.3,-591.56 239.98,-701.02 75.78,-231.56 151.57,-488.39 227.35,-770.48l0 -0.01zm3650.32 353.66c0,189.47 -12.62,328.39 -37.88,416.81 -42.1,155.79 -141.04,334.74 -296.83,536.82 -126.32,181.05 -292.62,338.93 -498.94,473.66 -252.61,138.94 -503.11,277.89 -751.52,416.83 8.42,50.52 20,89.47 34.72,116.83 14.74,27.38 38.96,41.06 72.64,41.06 181.05,0 418.91,-40 713.64,-120.01 294.71,-79.98 589.44,-164.21 884.17,-252.61 54.72,0 93.66,18.94 116.82,56.84 23.16,37.88 34.74,90.51 34.74,157.88 0,147.35 -263.15,343.13 -789.42,587.34 -526.29,244.18 -968.36,366.28 -1326.26,366.28 -193.66,0 -355.77,-111.59 -486.27,-334.73 -109.48,-189.47 -164.21,-387.33 -164.21,-593.64 0,-572.62 209.47,-1116.79 628.38,-1632.54 418.93,-515.75 853.64,-773.65 1304.14,-773.65 168.43,0 304.21,49.47 407.35,148.41 103.15,98.94 154.73,228.4 154.73,388.41l0 -0.01zm-808.36 195.77c-67.38,0 -122.1,11.58 -164.21,34.74 -42.1,23.16 -107.36,76.83 -195.78,161.04 -84.2,88.42 -176.83,235.78 -277.89,442.09 -54.72,113.66 -119.98,267.34 -195.77,461.02 138.94,-71.56 284.18,-168.41 435.75,-290.51 105.27,-84.2 197.88,-168.41 277.89,-252.61 96.84,-101.07 147.37,-153.69 151.57,-157.89 63.16,-75.8 94.74,-160 94.74,-252.62 -12.64,-33.69 -23.16,-56.84 -31.58,-69.47 -29.48,-50.52 -61.04,-75.8 -94.73,-75.8l0 0zm1300.98 814.7c67.36,-223.14 134.73,-416.81 202.1,-581.01 96.82,-231.56 191.56,-429.45 284.18,-593.65 117.88,-206.3 208.41,-313.66 271.57,-322.09 88.4,-8.42 193.66,21.06 315.77,88.42 122.1,67.36 176.82,147.36 164.2,239.98 -8.42,33.69 -65.26,187.34 -170.52,461.02 -80,202.1 -138.94,357.89 -176.83,467.35 210.51,-37.91 413.65,-69.48 609.44,-94.74 195.77,-25.27 354.71,-37.88 476.81,-37.88 92.62,-290.51 195.78,-555.76 309.45,-795.74 46.33,-101.04 124.2,-183.14 233.69,-246.31 109.46,-63.16 204.19,-94.73 284.19,-94.73 75.78,0 125.26,18.94 148.4,56.82 23.16,37.9 34.74,96.84 34.74,176.85l0 170.5c-92.62,357.89 -183.14,713.66 -271.57,1067.31 -88.4,353.67 -132.62,587.34 -132.62,701.02 0,122.1 28.42,247.35 85.25,375.78 56.84,128.4 81.05,209.47 72.63,243.14 -8.42,58.94 -83.14,150.5 -224.19,274.71 -141.04,124.2 -262.1,186.3 -363.15,186.3 -105.24,0 -196.83,-57.88 -274.71,-173.66 -77.9,-115.78 -127.36,-245.25 -148.42,-388.39 -4.2,-29.48 -6.32,-75.8 -6.32,-138.94 0,-151.59 21.06,-338.94 63.16,-562.08 -113.68,-25.27 -231.57,-37.9 -353.67,-37.9 -101.04,0 -254.7,18.96 -461.02,56.84 -42.1,8.42 -164.21,33.69 -366.31,75.78 -25.25,92.64 -52.62,258.95 -82.1,498.94 -8.42,79.98 -24.19,181.02 -47.36,303.13 -23.16,122.11 -104.2,223.15 -243.15,303.15 -117.88,67.36 -237.87,101.04 -359.97,101.04 -75.78,0 -131.59,-35.78 -167.37,-107.37 -35.78,-71.58 -53.68,-145.24 -53.68,-221.05 12.64,-122.09 28.42,-232.61 47.36,-331.55 18.96,-98.95 47.38,-226.31 85.26,-382.09 -113.68,0 -204.2,-22.1 -271.56,-66.31 -67.36,-44.22 -101.05,-112.62 -101.05,-205.27 0,-88.4 54.74,-173.66 164.21,-255.77 109.46,-82.11 250.51,-152.63 423.14,-211.57l-0.01 0zm7420.65 1844.12c-160.01,0 -299.99,-38.96 -419.99,-116.84 -119.98,-77.89 -209.45,-184.21 -268.41,-318.93 -25.27,-63.16 -42.1,-132.62 -50.52,-208.41 -8.42,-75.78 -12.62,-162.1 -12.62,-258.92 0,-63.16 2.1,-152.63 6.32,-268.41 4.2,-115.78 6.3,-194.73 6.3,-236.83 -223.15,256.83 -446.29,513.66 -669.42,770.49 -370.5,387.33 -650.49,581.01 -839.96,581.01 -117.89,0 -204.21,-50.52 -258.93,-151.57 -37.91,-67.38 -56.84,-138.94 -56.84,-214.73l271.57 -1130.47c12.61,-33.69 33.68,-116.84 63.14,-249.47 29.48,-132.62 52.64,-215.77 69.48,-249.45 -29.48,29.46 -183.14,242.09 -461.03,637.85 -290.51,412.61 -541.02,734.7 -751.54,966.27 -307.35,336.8 -551.54,505.23 -732.57,505.23 -117.91,0 -203.15,-46.33 -255.79,-138.94 -52.62,-92.62 -78.94,-197.89 -78.94,-315.77 42.1,-181.05 77.9,-326.31 107.37,-435.77 63.16,-239.99 143.16,-528.39 239.98,-865.23 75.79,-349.44 153.69,-701 233.67,-1054.67 109.48,-370.51 290.53,-555.76 543.14,-555.76 80,0 135.79,20 167.37,60 31.58,39.98 47.36,102.08 47.36,186.3 0,33.69 -3.16,78.94 -9.49,135.78 -6.3,56.82 -9.46,91.56 -9.46,104.2 0,75.78 -58.94,345.23 -176.85,808.36 -42.1,214.73 -84.2,427.35 -126.3,637.86 46.33,0 193.69,-155.77 442.09,-467.34 362.07,-454.71 599.96,-745.22 713.64,-871.52 286.29,-315.79 494.71,-473.67 625.22,-473.67 54.74,0 120.01,40 195.78,120 92.63,96.85 138.95,193.67 138.95,290.51 -12.64,122.11 -75.78,431.56 -189.47,928.37 -84.2,353.67 -130.52,553.66 -138.94,599.98 168.4,-210.53 338.93,-423.15 511.55,-637.85 290.51,-362.09 536.81,-652.6 738.9,-871.54 269.46,-294.71 444.19,-442.07 524.17,-442.07 80,0 146.32,24.2 198.94,72.62 52.62,48.42 78.94,121.04 78.94,217.89 0,67.36 -25.26,162.11 -75.78,284.19 -122.11,294.73 -189.47,491.55 -202.1,590.49 -12.62,98.95 -25.27,219.99 -37.88,363.14 -12.64,143.16 -18.94,265.26 -18.94,366.31 0,113.66 11.56,210.5 34.72,290.51 23.16,80 81.06,162.08 173.68,246.3 92.62,84.21 138.94,153.67 138.94,208.41 0,84.21 -44.22,193.67 -132.62,328.39 -101.06,155.79 -200,233.69 -296.82,233.69l-0.01 0.01zm3650.3 -2273.57c0,412.61 -199.99,877.84 -599.96,1395.72 -421.03,547.34 -821,821 -1199.93,821 -80,0 -173.68,-23.16 -281.05,-69.48 -107.37,-46.3 -207.35,-101.04 -299.97,-164.19 -42.1,151.57 -89.48,358.92 -142.11,622.07 -52.62,263.15 -85.26,449.45 -97.88,558.91 -12.64,109.47 -27.38,268.41 -44.22,476.81 -16.84,208.43 -30.52,362.09 -41.04,461.04 -10.52,98.95 -43.16,171.56 -97.89,217.89 -54.74,46.3 -164.2,69.47 -328.41,69.47 -151.57,0 -254.73,-54.72 -309.47,-164.21 -37.88,-79.98 -56.82,-204.19 -56.82,-372.61 0,-143.15 90.52,-581.01 271.55,-1313.6 269.47,-1094.69 414.73,-1686.22 435.77,-1774.65 46.33,-210.5 109.46,-456.81 189.47,-738.9 80,-282.09 155.79,-532.59 227.34,-751.54 54.74,-164.2 132.62,-271.56 233.69,-322.09 63.14,-29.46 162.09,-44.2 296.83,-44.2 88.4,0 147.35,18.94 176.83,56.84 29.46,37.88 44.2,96.84 44.2,176.83 0,80 -10.52,168.43 -31.59,265.25 172.63,-147.37 317.9,-258.92 435.78,-334.71 206.3,-130.52 376.83,-195.78 511.55,-195.78 256.83,0 438.91,80 546.28,239.98 107.36,160.01 161.04,454.71 161.04,884.17l0.01 -0.01zm-827.33 101.04c0,-172.62 -6.3,-282.09 -18.94,-328.38 -25.26,-84.22 -77.89,-126.32 -157.89,-126.32 -252.62,0 -458.91,107.36 -618.92,322.09 -101.04,134.73 -223.14,381.03 -366.29,738.9 -46.33,109.49 -95.78,245.27 -148.4,407.35 -52.63,162.11 -87.38,272.63 -104.22,331.57 21.06,-42.1 53.68,-78.94 97.9,-110.53 44.2,-31.58 91.56,-47.36 142.09,-47.36 42.12,4.2 90.52,33.69 145.26,88.41 54.74,54.74 117.88,82.1 189.46,82.1 172.63,0 355.77,-169.47 549.44,-508.4 193.69,-338.93 290.51,-622.06 290.51,-849.42z"/>
   <path id="path11" class="fil2" d="M16415.21 9168.56c0,176.85 -187.35,410.51 -562.05,701.01 -454.71,349.45 -947.33,524.17 -1477.82,524.17 -214.72,0 -370.51,-70.52 -467.33,-211.56 -96.85,-141.05 -145.27,-327.35 -145.27,-558.92 0,-113.66 31.58,-275.77 94.73,-486.27 84.22,-273.69 191.58,-509.46 322.09,-707.34 252.62,-362.08 519.97,-663.11 802.06,-903.1 345.25,-290.51 658.92,-435.77 941.01,-435.77 122.1,0 231.56,32.63 328.41,97.9 96.82,65.26 145.24,154.73 145.24,268.41 0,143.15 -54.72,231.57 -164.21,265.25 -172.6,25.27 -319.97,54.72 -442.07,88.4 -252.62,67.36 -504.17,269.48 -754.7,606.3 -250.51,336.81 -375.77,650.48 -375.77,940.99 0,105.26 48.42,157.89 145.26,157.89 126.3,0 311.57,-63.14 555.76,-189.47 265.25,-138.93 532.6,-279.97 802.06,-423.14 92.63,0 157.89,26.32 195.79,78.94 37.88,52.64 56.82,114.74 56.82,186.3l0 0zm4319.79 1244.16c-160.01,0 -299.99,-38.96 -419.99,-116.84 -119.98,-77.89 -209.45,-184.21 -268.41,-318.93 -25.26,-63.16 -42.1,-132.62 -50.52,-208.41 -8.42,-75.78 -12.62,-162.1 -12.62,-258.92 0,-63.16 2.1,-152.63 6.32,-268.41 4.2,-115.78 6.3,-194.72 6.3,-236.83 -223.14,256.82 -446.29,513.66 -669.42,770.49 -370.51,387.33 -650.5,581.02 -839.97,581.02 -117.88,0 -204.2,-50.52 -258.92,-151.57 -37.9,-67.38 -56.85,-138.95 -56.85,-214.73l271.57 -1130.47c12.63,-33.68 33.69,-116.84 63.14,-249.46 29.48,-132.62 52.64,-215.77 69.48,-249.45 -29.48,29.47 -183.15,242.09 -461.04,637.86 -290.51,412.61 -541.01,734.7 -751.54,966.26 -307.35,336.81 -551.54,505.24 -732.58,505.24 -117.9,0 -203.15,-46.33 -255.78,-138.94 -52.62,-92.62 -78.94,-197.89 -78.94,-315.77 42.1,-181.05 77.9,-326.31 107.36,-435.77 63.16,-239.99 143.17,-528.39 239.99,-865.23 75.78,-349.45 153.68,-701 233.67,-1054.67 109.48,-370.52 290.53,-555.76 543.13,-555.76 80,0 135.78,19.99 167.37,60 31.58,39.98 47.36,102.08 47.36,186.3 0,33.68 -3.16,78.94 -9.49,135.78 -6.3,56.82 -9.46,91.56 -9.46,104.2 0,75.78 -58.94,345.23 -176.85,808.36 -42.1,214.73 -84.2,427.35 -126.3,637.85 46.33,0 193.69,-155.76 442.09,-467.33 362.08,-454.71 599.96,-745.22 713.65,-871.53 286.29,-315.79 494.72,-473.67 625.22,-473.67 54.74,0 120.01,40 195.78,120 92.62,96.84 138.94,193.66 138.94,290.51 -12.64,122.11 -75.78,431.56 -189.46,928.37 -84.21,353.67 -130.53,553.66 -138.95,599.98 168.41,-210.52 338.94,-423.15 511.55,-637.85 290.51,-362.09 536.82,-652.6 738.9,-871.54 269.47,-294.71 444.19,-442.07 524.17,-442.07 80,0 146.32,24.2 198.95,72.61 52.62,48.43 78.94,121.04 78.94,217.89 0,67.36 -25.27,162.1 -75.79,284.18 -122.1,294.73 -189.46,491.56 -202.1,590.49 -12.62,98.95 -25.26,219.99 -37.88,363.14 -12.64,143.16 -18.94,265.27 -18.94,366.31 0,113.66 11.56,210.5 34.72,290.51 23.16,80 81.06,162.08 173.68,246.31 92.63,84.2 138.95,153.66 138.95,208.41 0,84.2 -44.22,193.66 -132.62,328.38 -101.06,155.79 -200,233.69 -296.83,233.69l0 0.02zm3738.73 -2766.18c-109.47,16.86 -244.21,48.42 -404.2,94.74 -117.88,33.68 -206.3,50.52 -265.25,50.52 54.74,75.79 90.52,128.42 107.37,157.89 33.69,50.52 50.52,151.56 50.52,303.15 0,374.71 -103.15,730.48 -309.46,1067.31 -160.01,261.03 -393.67,522.07 -701.01,783.1 -134.73,113.69 -263.15,191.57 -385.23,233.69 -122.1,42.1 -292.63,63.14 -511.55,63.14 -214.73,0 -391.58,-48.42 -530.5,-145.25 -189.46,-130.52 -284.2,-334.73 -284.2,-612.6 0,-277.89 61.06,-581.03 183.14,-909.43 92.64,-256.83 195.78,-465.23 309.47,-625.24 269.45,-383.13 492.59,-648.38 669.44,-795.74 130.52,-109.46 250.51,-164.21 359.97,-164.21 50.52,0 104.2,24.22 161.04,72.62 56.84,48.42 85.26,102.1 85.26,161.04 0,117.9 -84.21,298.95 -252.63,543.13 -168.41,244.21 -334.71,484.2 -498.91,719.96 -176.82,286.31 -265.25,515.75 -265.25,688.38 0,84.2 26.32,156.85 78.94,217.89 52.65,61.04 129.46,91.58 230.53,91.58 235.76,0 448.39,-147.36 637.85,-442.09 172.6,-269.45 258.92,-541.01 258.92,-814.68 0,-75.79 -23.16,-199.99 -69.48,-372.61 -46.3,-172.63 -69.46,-303.15 -69.46,-391.57 0,-202.09 189.47,-341.03 568.4,-416.81 227.35,-46.33 509.44,-69.46 846.27,-69.46 84.2,0 157.88,13.68 221.05,41.04 63.14,27.36 94.72,62.1 94.72,104.2 0,84.2 -33.68,164.21 -101.04,239.98 -67.36,75.79 -138.94,117.88 -214.72,126.3l0 0.03zm2425.13 -454.7c54.74,0 110.52,42.1 167.36,126.3 56.85,84.21 85.26,178.92 85.26,284.19 0,159.99 -44.22,488.39 -132.62,985.21 -63.16,311.57 -103.16,522.07 -120.01,631.53 404.19,-627.31 736.8,-1115.71 997.85,-1465.17 277.87,-374.72 467.33,-562.06 568.37,-562.06 84.22,0 153.68,24.21 208.42,72.62 54.72,48.42 82.09,123.14 82.09,224.18 0,71.58 -12.62,204.21 -37.88,397.87 -25.26,193.69 -37.9,351.57 -37.9,473.68 0,46.3 -2.1,134.72 -6.3,265.25 -4.22,130.52 -6.32,210.5 -6.32,239.98 0,79.98 0,157.89 0,233.67 8.42,126.3 27.36,229.47 56.85,309.45 29.46,80 95.78,164.21 198.92,252.63 103.17,88.42 154.73,159.98 154.73,214.72 0,84.2 -39.98,195.77 -119.98,334.71 -92.62,160.01 -185.24,239.99 -277.89,239.99 -164.21,0 -310.51,-40.01 -438.91,-119.98 -128.42,-80 -226.31,-189.47 -293.67,-328.41 -50.52,-113.68 -84.2,-241.04 -101.04,-382.09 -16.84,-141.04 -25.26,-308.39 -25.26,-502.08l0 -113.66c-210.52,265.25 -421.03,528.38 -631.56,789.42 -349.44,391.56 -621.02,587.34 -814.68,587.34 -92.63,0 -168.43,-29.48 -227.37,-88.42 -75.78,-75.78 -113.66,-168.41 -113.66,-277.87l183.14 -1155.73c12.62,-46.32 31.59,-133.68 56.84,-262.09 25.27,-128.42 46.3,-213.67 63.14,-255.78 -151.57,303.15 -292.61,568.4 -423.14,795.77 -193.66,345.23 -351.55,601.01 -473.65,767.32 -122.1,166.31 -245.25,283.13 -369.45,350.51 -124.2,67.36 -259.99,101.05 -407.35,101.05 -122.1,0 -246.31,-29.48 -372.61,-88.42 -147.36,-71.58 -221.05,-155.79 -221.05,-252.61 0,-122.1 16.84,-244.21 50.52,-366.31 50.54,-176.83 124.2,-265.25 221.05,-265.25 16.84,0 78.94,8.42 186.31,25.27 107.36,16.84 177.88,25.26 211.56,25.26 25.26,0 58.94,-4.19 101.05,-12.61 109.48,-29.48 269.46,-197.89 479.97,-505.24 155.79,-231.56 275.79,-429.45 359.99,-593.66 151.56,-282.09 286.29,-511.55 404.19,-688.37 181.05,-265.26 313.67,-409.45 397.87,-432.62 84.2,-23.16 149.46,-34.74 195.77,-34.74 25.28,0 61.06,4.22 107.36,12.64 46.33,8.42 84.22,12.64 113.69,12.64l-0.01 -0.01zm6069.13 2576.69c-16.84,8.42 -286.29,145.24 -808.36,410.5 -290.51,147.36 -473.67,221.05 -549.45,221.05 -126.3,0 -231.56,-37.88 -315.77,-113.69 -84.2,-75.78 -126.3,-164.18 -126.3,-265.25 0,-130.51 14.74,-279.96 44.2,-448.39 29.48,-168.41 50.52,-292.61 63.16,-372.61 -239.98,223.14 -477.87,446.29 -713.64,669.44 -336.83,282.09 -612.6,423.14 -827.33,423.14 -160,0 -299.99,-55.78 -419.99,-167.37 -119.98,-111.56 -179.99,-230.5 -179.99,-356.81 0,-172.63 120.01,-471.55 359.99,-896.79 256.84,-454.71 536.82,-842.06 839.95,-1162.06 362.09,-383.13 675.76,-574.69 941.01,-574.69 88.42,0 176.83,25.26 265.25,75.78 122.1,71.56 183.14,164.2 183.14,277.86 54.74,-75.78 109.47,-153.66 164.21,-233.66 71.58,-79.99 145.25,-119.98 221.05,-119.98 96.82,0 177.88,11.58 243.13,34.72 65.26,23.16 97.91,78.94 97.91,167.36 0,143.15 -37.91,351.58 -113.69,625.24 -75.78,273.67 -151.56,543.12 -227.34,808.36 -21.06,80 -44.22,188.43 -69.48,325.25 -25.27,136.84 -37.88,238.93 -37.88,306.31 0,75.78 14.72,113.66 44.2,113.66 50.52,0 229.47,-62.11 536.82,-186.3 307.35,-124.2 482.08,-186.3 524.17,-186.3 92.62,0 156.85,17.9 192.62,53.68 35.79,35.8 53.69,91.58 53.69,167.37 0,58.94 -42.1,129.46 -126.3,211.56 -84.22,82.11 -170.53,146.31 -258.95,192.63l-0.01 -0.01zm-1799.89 -1919.9c-172.63,0 -415.77,226.31 -729.44,678.9 -313.66,452.61 -470.49,782.06 -470.49,988.36 353.66,-244.18 650.5,-488.4 890.48,-732.58 277.87,-282.09 416.81,-503.13 416.81,-663.12 8.42,-63.16 12.62,-111.59 12.62,-145.26 0,-84.21 -39.98,-126.31 -119.98,-126.31zm6372.28 2564.08c-160.01,0 -299.99,-38.96 -419.99,-116.84 -119.98,-77.89 -209.45,-184.21 -268.41,-318.93 -25.27,-63.16 -42.1,-132.62 -50.52,-208.41 -8.42,-75.78 -12.62,-162.1 -12.62,-258.92 0,-63.16 2.1,-152.63 6.32,-268.41 4.2,-115.78 6.3,-194.72 6.3,-236.83 -223.14,256.82 -446.29,513.66 -669.42,770.49 -370.51,387.33 -650.49,581.02 -839.97,581.02 -117.88,0 -204.21,-50.52 -258.92,-151.57 -37.91,-67.38 -56.85,-138.95 -56.85,-214.73l271.57 -1130.47c12.62,-33.68 33.69,-116.84 63.14,-249.46 29.48,-132.62 52.63,-215.77 69.48,-249.45 -29.48,29.47 -183.15,242.09 -461.04,637.86 -290.51,412.61 -541.01,734.7 -751.54,966.26 -307.35,336.81 -551.54,505.24 -732.58,505.24 -117.9,0 -203.15,-46.33 -255.78,-138.94 -52.62,-92.62 -78.94,-197.89 -78.94,-315.77 42.1,-181.05 77.9,-326.31 107.36,-435.77 63.16,-239.99 143.17,-528.39 239.99,-865.23 75.78,-349.45 153.68,-701 233.67,-1054.67 109.48,-370.52 290.53,-555.76 543.14,-555.76 80,0 135.78,19.99 167.37,60 31.58,39.98 47.36,102.08 47.36,186.3 0,33.68 -3.15,78.94 -9.48,135.78 -6.3,56.82 -9.46,91.56 -9.46,104.2 0,75.78 -58.94,345.23 -176.85,808.36 -42.1,214.73 -84.2,427.35 -126.3,637.85 46.33,0 193.69,-155.76 442.09,-467.33 362.07,-454.71 599.96,-745.22 713.65,-871.53 286.29,-315.79 494.71,-473.67 625.22,-473.67 54.74,0 120,40 195.78,120 92.62,96.84 138.94,193.66 138.94,290.51 -12.64,122.11 -75.78,431.56 -189.47,928.37 -84.2,353.67 -130.52,553.66 -138.94,599.98 168.41,-210.52 338.93,-423.15 511.55,-637.85 290.51,-362.09 536.81,-652.6 738.9,-871.54 269.46,-294.71 444.19,-442.07 524.17,-442.07 80,0 146.32,24.2 198.95,72.61 52.62,48.43 78.94,121.04 78.94,217.89 0,67.36 -25.27,162.1 -75.78,284.18 -122.1,294.73 -189.46,491.56 -202.1,590.49 -12.61,98.95 -25.26,219.99 -37.88,363.14 -12.64,143.16 -18.94,265.27 -18.94,366.31 0,113.66 11.56,210.5 34.72,290.51 23.16,80 81.06,162.08 173.68,246.31 92.63,84.2 138.95,153.66 138.95,208.41 0,84.2 -44.23,193.66 -132.62,328.38 -101.06,155.79 -200,233.69 -296.83,233.69l0 0.02zm3738.73 -2766.18c-109.47,16.86 -244.21,48.42 -404.2,94.74 -117.88,33.68 -206.3,50.52 -265.25,50.52 54.74,75.79 90.53,128.42 107.37,157.89 33.69,50.52 50.52,151.56 50.52,303.15 0,374.71 -103.15,730.48 -309.46,1067.31 -160.01,261.03 -393.67,522.07 -701.01,783.1 -134.73,113.69 -263.15,191.57 -385.23,233.69 -122.1,42.1 -292.63,63.14 -511.55,63.14 -214.73,0 -391.57,-48.42 -530.5,-145.25 -189.46,-130.52 -284.2,-334.73 -284.2,-612.6 0,-277.89 61.06,-581.03 183.14,-909.43 92.64,-256.83 195.78,-465.23 309.47,-625.24 269.45,-383.13 492.59,-648.38 669.44,-795.74 130.52,-109.46 250.51,-164.21 359.97,-164.21 50.52,0 104.2,24.22 161.04,72.62 56.84,48.42 85.26,102.1 85.26,161.04 0,117.9 -84.21,298.95 -252.63,543.13 -168.41,244.21 -334.71,484.2 -498.91,719.96 -176.82,286.31 -265.25,515.75 -265.25,688.38 0,84.2 26.32,156.85 78.94,217.89 52.64,61.04 129.46,91.58 230.53,91.58 235.76,0 448.39,-147.36 637.85,-442.09 172.6,-269.45 258.92,-541.01 258.92,-814.68 0,-75.79 -23.16,-199.99 -69.48,-372.61 -46.3,-172.63 -69.47,-303.15 -69.47,-391.57 0,-202.09 189.47,-341.03 568.4,-416.81 227.35,-46.33 509.44,-69.46 846.27,-69.46 84.2,0 157.88,13.68 221.05,41.04 63.14,27.36 94.72,62.1 94.72,104.2 0,84.2 -33.68,164.21 -101.04,239.98 -67.36,75.79 -138.94,117.88 -214.72,126.3l0 0.03zm1079.95 675.76c101.04,-193.66 202.08,-389.45 303.13,-587.34 113.69,-193.67 225.25,-305.25 334.74,-334.71 252.61,-80 456.81,-120.01 612.6,-120.01 92.62,0 149.46,28.43 170.5,85.27 21.06,56.84 31.58,156.82 31.58,299.99 0,105.24 -29.47,345.22 -88.42,719.96 -58.94,374.71 -88.4,635.76 -88.4,783.1 0,54.74 4.2,116.84 12.62,186.3 8.42,69.49 68.42,173.69 180,312.63 111.56,138.93 165.24,223.14 161.04,252.61 -12.64,54.74 -75.8,136.84 -189.46,246.31 -130.53,126.3 -237.89,189.47 -322.1,189.47 -96.84,0 -210.52,-67.36 -341.05,-202.1 -130.51,-134.72 -205.25,-245.25 -224.19,-331.55 -18.94,-86.32 -30.52,-184.2 -34.74,-293.66 -4.2,-109.47 -6.32,-174.73 -6.32,-195.79 0,-341.02 31.58,-663.12 94.74,-966.27 -159.99,319.99 -292.61,578.92 -397.87,776.8 -189.47,362.09 -336.83,616.82 -442.09,764.18 -117.88,164.19 -239.99,279.96 -366.29,347.35 -126.3,67.36 -263.15,101.04 -410.49,101.04 -117.9,0 -238.94,-28.42 -363.15,-85.26 -124.2,-56.84 -186.3,-127.36 -186.3,-211.56 0,-109.46 24.22,-245.25 72.63,-407.35 48.42,-162.09 102.1,-251.56 161.04,-268.41 8.42,-4.2 64.22,3.16 167.36,22.1 103.17,18.96 179.99,28.42 230.5,28.42 29.48,0 61.07,-4.2 94.74,-12.62 109.47,-29.48 269.45,-197.88 479.97,-505.23 159.99,-235.79 277.87,-433.67 353.67,-593.66l0.01 -0.01zm4932.36 -675.76c-109.46,16.86 -244.2,48.42 -404.19,94.74 -117.88,33.68 -206.31,50.52 -265.25,50.52 54.74,75.79 90.52,128.42 107.36,157.89 33.69,50.52 50.52,151.56 50.52,303.15 0,374.71 -103.15,730.48 -309.45,1067.31 -160,261.03 -393.67,522.07 -701.02,783.1 -134.72,113.69 -263.15,191.57 -385.23,233.69 -122.1,42.1 -292.62,63.14 -511.55,63.14 -214.72,0 -391.57,-48.42 -530.49,-145.25 -189.47,-130.52 -284.21,-334.73 -284.21,-612.6 0,-277.89 61.06,-581.03 183.14,-909.43 92.64,-256.83 195.79,-465.23 309.47,-625.24 269.45,-383.13 492.6,-648.38 669.44,-795.74 130.53,-109.46 250.51,-164.21 359.97,-164.21 50.52,0 104.2,24.22 161.04,72.62 56.84,48.42 85.26,102.1 85.26,161.04 0,117.9 -84.2,298.95 -252.62,543.13 -168.41,244.21 -334.71,484.2 -498.91,719.96 -176.83,286.31 -265.25,515.75 -265.25,688.38 0,84.2 26.32,156.85 78.94,217.89 52.63,61.04 129.46,91.58 230.53,91.58 235.76,0 448.39,-147.36 637.85,-442.09 172.61,-269.45 258.93,-541.01 258.93,-814.68 0,-75.79 -23.16,-199.99 -69.48,-372.61 -46.3,-172.63 -69.47,-303.15 -69.47,-391.57 0,-202.09 189.47,-341.03 568.4,-416.81 227.34,-46.33 509.43,-69.46 846.26,-69.46 84.2,0 157.88,13.68 221.05,41.04 63.14,27.36 94.73,62.1 94.73,104.2 0,84.2 -33.69,164.21 -101.05,239.98 -67.36,75.79 -138.94,117.88 -214.72,126.3l0 0.03zm164.21 637.88c-67.36,0 -143.15,-52.64 -227.34,-157.9 -54.74,-71.56 -82.11,-138.93 -82.11,-202.08 0,-172.63 149.47,-368.39 448.4,-587.34 298.93,-218.92 557.85,-328.41 776.8,-328.41 181.05,0 339.97,44.22 476.81,132.62 136.82,88.42 205.25,208.42 205.25,359.99 0,336.83 -84.2,614.7 -252.61,833.65 -75.8,96.82 -223.14,248.4 -442.09,454.71 -138.94,126.31 -277.87,252.61 -416.81,378.92 -122.1,122.1 -183.14,227.36 -183.14,315.79 0,50.52 31.56,75.78 94.73,75.78 176.82,0 377.87,-63.16 603.12,-189.47 225.26,-126.3 453.67,-256.83 685.24,-391.57 58.94,0 105.24,21.06 138.94,63.16 33.69,42.1 50.52,92.62 50.52,151.57 0,193.68 -196.85,436.83 -590.51,729.44 -393.67,292.6 -727.34,438.93 -1001,438.93 -231.57,0 -433.65,-65.26 -606.28,-195.78 -189.47,-143.15 -284.19,-319.99 -284.19,-530.5 0,-185.27 155.78,-416.83 467.33,-694.7 84.2,-75.78 231.57,-195.78 442.09,-359.99 248.4,-197.86 402.07,-336.8 461.02,-416.81 42.1,-54.74 63.16,-134.73 63.16,-239.98 0,-29.48 -25.27,-44.2 -75.78,-44.2 -109.46,0 -235.78,67.36 -378.93,202.08 -143.15,134.72 -267.35,202.1 -372.61,202.1l0.01 0zm5064.98 1623.06c0,84.2 -63.14,187.35 -189.47,309.45 -126.3,122.11 -237.87,183.15 -334.71,183.15 -126.3,0 -241.05,-40.01 -344.19,-119.99 -103.16,-80 -187.37,-180 -252.63,-299.99 -65.26,-120.01 -112.62,-234.72 -142.08,-344.19 -29.48,-109.47 -52.65,-258.93 -69.49,-448.4 -349.44,366.29 -526.28,551.54 -530.49,555.76 -210.5,202.09 -408.39,355.77 -593.65,461.04 -231.56,130.5 -463.13,195.77 -694.7,195.77 -96.82,0 -182.08,-34.74 -255.77,-104.2 -73.68,-69.47 -106.31,-148.4 -97.89,-236.83 0,-143.15 63.14,-425.23 189.47,-846.26 92.62,-311.57 149.47,-503.13 170.5,-574.72 147.37,-475.75 292.63,-833.62 435.77,-1073.61 181.05,-298.95 378.93,-448.42 593.65,-448.42 54.72,0 105.24,25.27 151.57,75.8 46.33,50.52 69.47,94.73 69.47,132.62 -12.63,109.46 -50.52,238.92 -113.67,388.39 -63.16,149.47 -123.17,288.41 -180.01,416.81 -56.84,128.42 -123.14,297.89 -198.92,508.39 -75.78,210.52 -117.89,353.67 -126.31,429.45l0 94.74c0,84.2 39.98,126.3 119.98,126.3 122.1,0 338.93,-157.89 650.5,-473.66 164.19,-172.63 330.51,-345.25 498.91,-517.88 130.52,-391.55 288.41,-675.76 473.66,-852.58 134.72,-130.53 275.77,-195.79 423.13,-195.79 80,0 138.95,27.38 176.85,82.1 37.88,54.74 56.82,126.33 56.82,214.73 0,67.36 -79.98,324.19 -239.98,770.48 -79.98,223.15 -119.98,408.42 -119.98,555.78 -4.22,50.52 -6.32,84.2 -6.32,101.04 0,159.99 50.52,322.09 151.58,486.27 109.46,151.58 218.92,301.05 328.39,448.42l-0.01 0.01zm3580.86 0c0,84.2 -63.14,187.35 -189.47,309.45 -126.3,122.11 -237.87,183.15 -334.71,183.15 -126.3,0 -241.05,-40.01 -344.19,-119.99 -103.16,-80 -187.36,-180 -252.62,-299.99 -65.26,-120.01 -112.62,-234.72 -142.09,-344.19 -29.47,-109.47 -52.64,-258.93 -69.48,-448.4 -349.44,366.29 -526.28,551.54 -530.49,555.76 -210.51,202.09 -408.4,355.77 -593.65,461.04 -231.57,130.5 -463.13,195.77 -694.7,195.77 -96.82,0 -182.08,-34.74 -255.77,-104.2 -73.68,-69.47 -106.3,-148.4 -97.88,-236.83 0,-143.15 63.14,-425.23 189.46,-846.26 92.63,-311.57 149.47,-503.13 170.51,-574.72 147.36,-475.75 292.62,-833.62 435.77,-1073.61 181.05,-298.95 378.93,-448.42 593.65,-448.42 54.72,0 105.24,25.27 151.57,75.8 46.33,50.52 69.46,94.73 69.46,132.62 -12.62,109.46 -50.52,238.92 -113.66,388.39 -63.16,149.47 -123.17,288.41 -180.01,416.81 -56.84,128.42 -123.14,297.89 -198.93,508.39 -75.78,210.52 -117.88,353.67 -126.3,429.45l0 94.74c0,84.2 39.98,126.3 119.98,126.3 122.1,0 338.93,-157.89 650.49,-473.66 164.19,-172.63 330.51,-345.25 498.91,-517.88 130.52,-391.55 288.41,-675.76 473.65,-852.58 134.73,-130.53 275.77,-195.79 423.14,-195.79 80,0 138.94,27.38 176.85,82.1 37.88,54.74 56.82,126.33 56.82,214.73 0,67.36 -79.99,324.19 -239.99,770.48 -79.98,223.15 -119.98,408.42 -119.98,555.78 -4.22,50.52 -6.32,84.2 -6.32,101.04 0,159.99 50.52,322.09 151.58,486.27 109.47,151.58 218.93,301.05 328.39,448.42l0.01 0.01z"/>
   <path class="fil3" d="M13776.29 14336.53l0 -2104.74 789.76 0c160.7,0 289.55,21.07 387.05,63.69 97,42.63 172.95,108.28 227.82,196.96 55.36,88.19 82.8,180.78 82.8,277.79 0,89.66 -24.49,174.42 -73,253.79 -48.5,79.37 -121.99,143.55 -220.47,192.54 127.39,37.23 225.37,100.93 293.47,191.07 68.6,89.66 102.89,195.98 102.89,318.45 0,98.97 -21.07,190.59 -62.71,275.34 -41.65,84.76 -93.1,149.92 -154.33,195.98 -61.25,45.57 -138.17,80.34 -230.27,103.87 -92.6,23.51 -205.77,35.27 -340.01,35.27l-802.99 0zm279.26 -1219.93l455.14 0c123.47,0 212.14,-8.32 265.55,-24.5 71.05,-21.07 124.44,-56.33 160.22,-105.33 35.76,-49 53.88,-110.23 53.88,-184.21 0,-70.06 -16.65,-131.8 -50.46,-184.71 -33.31,-53.39 -81.33,-90.14 -143.54,-109.74 -62.22,-19.6 -169.03,-29.4 -319.92,-29.4l-420.85 0 0 637.89zm0 973.01l524.23 0c90.14,0 153.34,-3.43 190.09,-10.29 63.69,-11.26 117.58,-30.37 160.7,-57.32 43.11,-26.94 78.38,-66.14 106.31,-117.58 27.93,-51.44 41.64,-110.72 41.64,-177.84 0,-78.89 -20.08,-146.98 -60.74,-205.29 -40.18,-58.3 -96.03,-98.97 -167.56,-122.48 -71.04,-23.52 -173.92,-35.28 -307.68,-35.28l-486.98 0 0 726.08zm3212.62 -1278.73l258.69 0 0 634.95 717.26 0 0 -634.95 258.68 0 0 1525.64 -258.68 0 0 -676.1 -717.26 0 0 676.1 -258.69 0 0 -1525.64zm3031.28 1031.79l267.5 35.28c-41.65,155.31 -119.55,276.32 -233.21,362.06 -113.67,85.73 -258.69,128.86 -435.55,128.86 -222.43,0 -398.81,-68.6 -529.12,-205.77 -130.33,-136.69 -195.49,-329.23 -195.49,-576.65 0,-255.75 65.64,-454.66 197.45,-595.76 131.79,-141.59 302.78,-212.13 512.95,-212.13 203.32,0 369.41,69.08 498.26,207.72 128.86,138.66 193.53,333.65 193.53,584.98 0,15.19 -0.49,38.21 -1.47,68.6l-1136.15 0c9.8,167.06 56.83,295.42 142.08,384.1 84.76,88.67 191.07,133.26 317.97,133.26 94.55,0 175.39,-24.99 242.02,-74.95 67.12,-49.98 120.03,-129.83 159.23,-239.59zm-846.6 -414.47l849.55 0c-11.27,-128.36 -44.1,-224.39 -97.5,-288.57 -81.82,-99.45 -188.63,-149.43 -319.44,-149.43 -118.56,0 -218.02,39.68 -298.86,119.05 -80.35,79.37 -124.94,185.68 -133.75,318.95zm2696.16 -1196.42l258.69 0 0 729.02c53.41,-61.25 112.19,-106.81 176.37,-137.19 63.69,-29.89 132.77,-45.07 206.26,-45.07 180.29,0 323.35,75.45 429.18,225.86 105.35,150.4 158.26,339.53 158.26,567.83 0,238.11 -56.84,430.16 -170.51,576.65 -113.65,146.49 -255.25,219.98 -424.27,219.98 -55.36,0 -111.71,-8.82 -169.03,-25.97 -57.32,-17.15 -125.92,-64.18 -206.26,-140.61l0 719.22 -258.69 0 0 -719.22c-51.44,55.36 -108.76,97 -171.47,124.94 -62.71,27.92 -130.33,41.65 -203.32,41.65 -159.71,0 -299.34,-70.06 -418.9,-209.69 -119.54,-140.12 -179.31,-340.51 -179.31,-601.15 0,-220.96 53.89,-405.67 162.17,-555.1 108.27,-149.43 253.3,-224.38 436.04,-224.38 76.92,0 146,15.18 208.23,45.07 62.22,30.38 117.58,75.94 166.57,137.19l0 -729.02zm257.21 1348.29c0,229.29 31.36,383.13 94.56,462 62.71,78.88 141.59,118.08 236.15,118.08 104.84,0 194.5,-48.5 268.48,-145.51 73.99,-96.52 110.72,-247.41 110.72,-451.71 0,-192.55 -34.29,-336.59 -102.39,-431.15 -68.1,-94.56 -155.79,-141.59 -262.6,-141.59 -114.64,0 -200.38,48.99 -258.2,147.46 -57.81,98.47 -86.72,245.94 -86.72,442.41zm-965.65 -29.39c0,215.07 36.26,369.89 108.27,464.46 72.02,94.55 161.19,142.07 267.99,142.07 111.7,0 195.48,-47.04 250.85,-141.1 54.87,-94.07 82.8,-235.66 82.8,-423.79 0,-200.87 -28.91,-351.28 -87.21,-451.72 -58.3,-100.43 -146,-150.4 -263.58,-150.4 -105.83,0 -192.06,48.99 -259.18,146.98 -66.63,97.98 -99.94,235.66 -99.94,413.51zm2407.11 -739.8l1234.62 0 0 214.59 -487.97 0 0 1311.05 -258.68 0 0 -1311.05 -487.97 0 0 -214.59zm3051.36 0l0 1525.64 -258.69 0 0 -593.79 -148.93 0c-90.64,0 -158.25,11.76 -202.84,35.77 -44.58,24.01 -109.74,98.97 -195.48,225.85l-227.34 332.17 -320.42 0 279.26 -409.58c85.25,-125.42 170.5,-195.97 255.26,-212.15 -147.48,-20.08 -257.22,-73.49 -328.75,-159.71 -71.54,-86.23 -107.3,-185.69 -107.3,-297.88 0,-132.77 46.55,-240.07 140.12,-322.37 93.58,-82.8 229.29,-123.95 406.65,-123.95l708.44 0zm-258.69 214.59l-367.45 0c-153.84,0 -253.3,24.01 -297.88,72.02 -44.59,48.02 -66.64,104.36 -66.64,168.54 0,91.13 32.84,158.25 98.48,200.88 65.16,42.62 181.28,64.17 347.86,64.17l285.63 0 0 -505.61zm1015.7 -214.59l258.69 0 0 634.95 717.26 0 0 -634.95 258.68 0 0 1525.64 -258.68 0 0 -676.1 -717.26 0 0 676.1 -258.69 0 0 -1525.64zm1990.66 0l258.69 0 0 1163.6 718.72 -1163.6 277.8 0 0 1525.64 -258.69 0 0 -1156.23 -717.75 1156.23 -278.77 0 0 -1525.64zm2006.83 0l258.68 0 0 658.46c82.31,0 140.12,-15.67 173.43,-47.52 32.82,-31.36 81.33,-122.98 146,-275.34 50.96,-120.53 92.11,-199.89 123.47,-238.11 31.85,-38.21 68.1,-64.18 109.26,-77.41 41.64,-13.23 107.78,-20.09 198.42,-20.09l51.92 0 0 213.12 -72.02 -1.48c-68.09,0 -111.7,10.29 -130.81,30.38 -20.09,21.07 -50.96,83.78 -92.11,188.13 -39.19,99.95 -74.95,169.03 -107.78,207.24 -32.33,38.21 -82.8,73 -150.89,104.84 111.2,29.88 220.96,133.26 328.74,310.62l283.67 472.78 -284.16 0 -279.75 -471.31c-56.33,-95.53 -105.33,-158.25 -146.97,-188.63 -42.14,-30.37 -92.11,-45.56 -150.41,-45.56l0 705.5 -258.68 0 0 -1525.64zm2717.72 1334.57c-96.03,81.82 -188.62,139.15 -277.3,172.95 -88.68,33.8 -183.72,50.46 -285.63,50.46 -167.55,0 -296.41,-40.67 -386.55,-122.49 -90.16,-81.33 -135.23,-185.68 -135.23,-312.58 0,-74.47 17.15,-142.56 50.96,-204.3 34.3,-61.73 78.88,-110.72 133.75,-147.95 55.36,-37.24 117.09,-65.66 186.17,-84.76 50.96,-13.22 127.87,-25.97 230.27,-38.71 208.71,-24.5 363.04,-54.38 461.52,-88.68 0.98,-35.27 1.48,-57.81 1.48,-67.12 0,-104.84 -24.5,-178.82 -73.5,-221.94 -66.14,-58.3 -164.61,-87.21 -294.94,-87.21 -121.99,0 -212.14,21.56 -269.95,64.19 -58.31,42.62 -100.93,118.08 -128.85,226.83l-252.81 -35.27c23.02,-108.28 60.75,-195.97 113.66,-262.61 52.91,-66.63 129.35,-117.58 229.29,-153.84 99.45,-35.76 215.57,-53.89 346.87,-53.89 130.32,0 236.64,15.18 318.45,46.05 81.33,30.86 141.59,69.08 179.81,115.62 38.21,46.55 65.16,105.35 80.83,176.38 8.34,44.1 12.74,123.47 12.74,237.61l0 342.95c0,239.58 5.39,390.96 16.16,455.15 10.29,64.18 31.85,125.42 63.21,184.21l-270.45 0c-25.96,-54.38 -42.62,-118.07 -49.97,-191.07zm-20.57 -573.21c-94.07,38.21 -235.18,70.55 -423.31,97 -106.81,15.19 -182.26,32.33 -226.35,51.44 -44.1,19.11 -77.9,47.03 -101.91,83.28 -24.01,36.75 -36.26,77.41 -36.26,122.48 0,68.1 25.97,125.42 78.39,170.99 52.43,45.56 128.85,68.59 229.29,68.59 99.45,0 188.13,-21.55 266.04,-65.16 77.41,-43.11 134.73,-102.39 170.99,-177.35 27.92,-58.3 41.64,-144.04 41.64,-257.21l1.48 -94.07zm850.1 764.29l557.04 -790.25 -515.89 -735.39 317.96 0 241.05 360.11c44.59,67.6 79.86,122.48 104.85,165.59 43.6,-61.24 82.3,-116.61 117.09,-166.09l253.78 -359.61 316.01 0 -518.84 735.39 552.64 790.25 -314.53 0 -315.52 -470.33 -72.02 -113.17 -407.63 583.5 -316 0z"/>
  </g>
 </g>
</svg>
