<svg width="30" height="18" viewBox="0 0 30 18" fill="none" xmlns="http://www.w3.org/2000/svg">
<path d="M25.876 4.92622C19.8512 -1.09861 10.049 -1.09861 4.02415 4.92622L0 8.94986L4.12399 13.0738C7.13615 16.086 11.0929 17.5926 15.0502 17.5926C19.0074 17.5926 22.9637 16.0865 25.9763 13.0738L30.0005 9.04969L25.876 4.92622ZM25.2593 12.3573C19.6297 17.9863 10.4701 17.9863 4.84054 12.3573L1.43311 8.94986L4.74071 5.64226C10.3703 0.0132095 19.5299 0.0132095 25.1595 5.64226L28.5669 9.04969L25.2593 12.3573Z" fill="black" fill-opacity="0.8"/>
<path d="M14.4789 4.93085C12.5229 4.93085 10.9316 6.52206 10.9316 8.47814C10.9316 8.75787 11.1587 8.9849 11.4384 8.9849C11.7181 8.9849 11.9452 8.75787 11.9452 8.47814C11.9452 7.08102 13.0818 5.94436 14.4789 5.94436C14.7587 5.94436 14.9857 5.71733 14.9857 5.4376C14.9857 5.15787 14.7592 4.93085 14.4789 4.93085Z" fill="black" fill-opacity="0.8"/>
<path d="M14.9858 2.39703C11.3534 2.39703 8.39795 5.35244 8.39795 8.98487C8.39795 12.6173 11.3534 15.5727 14.9858 15.5727C18.6182 15.5727 21.5736 12.6173 21.5736 8.98487C21.5736 5.35244 18.6187 2.39703 14.9858 2.39703ZM14.9858 14.5592C11.9123 14.5592 9.41146 12.0584 9.41146 8.98487C9.41146 5.91139 11.9123 3.41055 14.9858 3.41055C18.0593 3.41055 20.5601 5.91139 20.5601 8.98487C20.5601 12.0584 18.0598 14.5592 14.9858 14.5592Z" fill="black" fill-opacity="0.8"/>
</svg>
