<svg width="11" height="15" viewBox="0 0 11 15" fill="none" xmlns="http://www.w3.org/2000/svg">
<path d="M5.5 0C2.46254 0 0 2.35682 0 5.26383C0 5.48638 0.0186539 5.70327 0.0470866 5.91828C0.517049 10.03 5.14286 14.769 5.14286 14.769C5.22529 14.8573 5.30475 14.9117 5.38127 14.9511L5.3852 14.953L5.53924 15L5.69328 14.953L5.69722 14.9511C5.77374 14.9117 5.85323 14.8544 5.93562 14.769C5.93562 14.769 10.4947 10.0216 10.9539 5.90892C10.9813 5.69672 11 5.48168 11 5.2629C10.999 2.35682 8.53746 0 5.5 0ZM5.5 8.64976C3.5496 8.64976 1.96221 7.13052 1.96221 5.26386C1.96221 3.3972 3.5496 1.87797 5.5 1.87797C7.4504 1.87797 9.03682 3.3972 9.03682 5.26386C9.03682 7.13052 7.4504 8.64976 5.5 8.64976Z" fill="#010002"/>
</svg>
