<svg width="71" height="65" viewBox="0 0 71 65" fill="none" xmlns="http://www.w3.org/2000/svg">
<path fill-rule="evenodd" clip-rule="evenodd" d="M55.6167 8.83155H52.753L49.7237 3.53732C48.6726 1.69117 46.7124 0.550289 44.588 0.548218H26.412C24.2892 0.550437 22.3304 1.68984 21.2787 3.53377L18.247 8.83155H17.75V5.28155C17.75 4.62806 17.2202 4.09822 16.5667 4.09822H7.1C6.4465 4.09822 5.91667 4.62806 5.91667 5.28155V8.83155C2.65067 8.8354 0.00384583 11.4822 0 14.7482V47.8816C0.00384583 51.1476 2.65067 53.7944 5.91667 53.7982H38.9695C42.2343 62.3419 51.8071 66.6213 60.3507 63.3565C66.7656 60.905 71.0021 54.7489 71 47.8816V14.7482C70.9962 11.4821 68.3493 8.8354 65.0833 8.83155H62.7167H57.9833H55.6167ZM15.3833 6.46489H8.28333V8.83155H15.3833V6.46489ZM38.4607 43.5151C38.5246 43.2796 38.5885 43.0453 38.6619 42.8145C38.7394 42.582 38.8265 42.3525 38.9129 42.1247C38.9479 42.0326 38.9828 41.9406 39.0169 41.8489C39.0419 41.7858 39.0639 41.7217 39.0859 41.6577C39.1118 41.5824 39.1376 41.5071 39.1683 41.4336L41.167 37.964C41.1817 37.9438 41.1987 37.9254 41.2156 37.9071C41.2312 37.8902 41.2468 37.8734 41.2605 37.8552C42.1599 36.667 43.2187 35.6082 44.4069 34.7087C44.4252 34.695 44.442 34.6795 44.4589 34.6638C44.4772 34.6469 44.4955 34.63 44.5158 34.6152L47.9853 32.6189C48.0585 32.588 48.1342 32.5621 48.2098 32.5363C48.27 32.5158 48.3301 32.4953 48.3889 32.4722C48.4856 32.437 48.5825 32.4008 48.6798 32.3645C48.9097 32.2786 49.1413 32.192 49.3758 32.1172C49.603 32.045 49.8266 31.9823 50.0633 31.9196C50.1415 31.8984 50.2185 31.8748 50.2954 31.8512C50.4036 31.8181 50.5117 31.7849 50.623 31.7586C50.7971 30.8319 50.8842 29.891 50.8833 28.9482C50.8833 20.4522 43.996 13.5649 35.5 13.5649C27.004 13.5649 20.1167 20.4522 20.1167 28.9482C20.1167 37.4443 27.004 44.3316 35.5 44.3316C36.4397 44.3319 37.3774 44.2447 38.3009 44.0712C38.3264 43.9551 38.3615 43.8421 38.3967 43.7292C38.4189 43.658 38.441 43.5869 38.4607 43.5151ZM40.2333 47.8816C40.2333 55.724 46.5909 62.0816 54.4333 62.0816C62.2757 62.0816 68.6333 55.724 68.6333 47.8816C68.6333 40.0392 62.2757 33.6816 54.4333 33.6816C53.5618 33.6786 52.6921 33.7591 51.8359 33.9218C49.7516 34.3031 47.7811 35.1529 46.0731 36.4068C46.0383 36.4337 46.0015 36.4578 45.963 36.479C45.4015 36.8934 44.8718 37.3496 44.3785 37.8433C44.3382 37.8837 44.3011 37.9272 44.2649 37.9715C44.2528 37.9862 44.2408 38.0011 44.2289 38.0159C44.1884 38.0661 44.1479 38.1162 44.104 38.1628C43.7168 38.5634 43.3536 38.9866 43.0165 39.4302C42.998 39.463 42.9775 39.4947 42.955 39.5249C41.7018 41.2297 40.8521 43.197 40.47 45.2782C40.308 46.1364 40.2287 47.0083 40.2333 47.8816ZM67.2962 37.4552C67.5837 37.8149 67.8618 38.1841 68.1245 38.5687C68.1689 38.6336 68.21 38.7017 68.2531 38.7732L68.2582 38.7817C68.2845 38.8215 68.3109 38.8613 68.3374 38.9011C68.4384 39.0528 68.5396 39.205 68.6333 39.3616V14.7482C68.6333 12.7876 67.044 11.1982 65.0833 11.1982H52.0667C51.6416 11.1991 51.2485 10.9719 51.0372 10.603L47.6647 4.71C47.0353 3.60314 45.8613 2.91814 44.588 2.91488H26.412C25.1387 2.91814 23.9647 3.60314 23.3353 4.71L19.9605 10.6066C19.7486 10.9734 19.357 11.1991 18.9333 11.1982H5.91667C3.95603 11.1982 2.36667 12.7876 2.36667 14.7482V47.8816C2.36667 49.8422 3.95603 51.4316 5.91667 51.4316H38.2489C38.2389 51.3849 38.2323 51.3376 38.2256 51.2904C38.2195 51.2477 38.2135 51.205 38.2051 51.1629C38.1239 50.7575 38.0572 50.3488 38.0051 49.937C38.0001 49.8948 37.995 49.8526 37.9898 49.8104C37.9765 49.7022 37.9633 49.5939 37.953 49.485C37.901 48.9537 37.8667 48.42 37.8667 47.8816C37.8667 47.4165 37.8927 46.9621 37.9294 46.5124C37.1249 46.6309 36.3131 46.693 35.5 46.6982C25.697 46.6982 17.75 38.7513 17.75 28.9482C17.75 19.1452 25.697 11.1982 35.5 11.1982C45.303 11.1982 53.25 19.1452 53.25 28.9482C53.2447 29.7609 53.183 30.5722 53.0654 31.3764C53.5139 31.3409 53.9683 31.3149 54.4333 31.3149C54.941 31.3149 55.4415 31.3457 55.9433 31.3859L56.3065 31.4226C56.7964 31.4782 57.2828 31.548 57.7561 31.645L57.8401 31.6652C58.2934 31.7598 58.7371 31.8782 59.1749 32.0095C59.2646 32.0354 59.3499 32.062 59.4394 32.0899L59.5157 32.1136C59.969 32.2604 60.4151 32.4201 60.8505 32.6035C60.8554 32.6056 60.8602 32.6076 60.8649 32.6097C60.8676 32.6109 60.8703 32.6121 60.8729 32.6133C60.8763 32.6148 60.8796 32.6163 60.883 32.6178C60.8963 32.6239 60.9097 32.6302 60.9231 32.6365C60.9436 32.6461 60.9643 32.6558 60.9854 32.6651C61.383 32.8367 61.7712 33.026 62.1522 33.2272C62.167 33.2351 62.1818 33.243 62.1966 33.2508L62.2008 33.2531C62.2884 33.2998 62.3752 33.3461 62.4611 33.394C62.8693 33.62 63.2681 33.8602 63.6539 34.1194C63.6681 34.1299 63.682 34.1404 63.6959 34.1508C63.7004 34.1543 63.705 34.1577 63.7095 34.1612C63.7206 34.1695 63.7316 34.1779 63.7427 34.1862C63.7661 34.2037 63.7895 34.2209 63.8136 34.2377C64.1556 34.4732 64.4869 34.7229 64.8088 34.982C64.8987 35.0542 64.9887 35.1264 65.0774 35.1998C65.4312 35.498 65.7744 35.8068 66.1022 36.1322C66.1339 36.1633 66.1645 36.196 66.195 36.2287C66.2168 36.252 66.2386 36.2752 66.2607 36.2979C66.5447 36.5878 66.8181 36.8896 67.0808 37.1996C67.153 37.2848 67.2252 37.3688 67.2962 37.4552Z" fill="#00913F"/>
<path d="M59.1662 13.5649C57.2056 13.5649 55.6162 15.1542 55.6162 17.1149C55.6162 19.0755 57.2056 20.6649 59.1662 20.6649C61.1268 20.6649 62.7162 19.0755 62.7162 17.1149C62.7162 15.1542 61.1268 13.5649 59.1662 13.5649ZM59.1662 18.2982C58.5127 18.2982 57.9829 17.7684 57.9829 17.1149C57.9829 16.4614 58.5127 15.9315 59.1662 15.9315C59.8197 15.9315 60.3495 16.4614 60.3495 17.1149C60.3495 17.7684 59.8197 18.2982 59.1662 18.2982Z" fill="#00913F"/>
<path d="M55.6165 46.6982V38.4149C55.6165 37.7614 55.0867 37.2316 54.4332 37.2316C53.7797 37.2316 53.2499 37.7614 53.2499 38.4149V46.6982H44.9665C44.313 46.6982 43.7832 47.2281 43.7832 47.8816C43.7832 48.5351 44.313 49.0649 44.9665 49.0649H53.2499V57.3482C53.2499 58.0017 53.7797 58.5316 54.4332 58.5316C55.0867 58.5316 55.6165 58.0017 55.6165 57.3482V49.0649H63.8999C64.5534 49.0649 65.0832 48.5351 65.0832 47.8816C65.0832 47.2281 64.5534 46.6982 63.8999 46.6982H55.6165Z" fill="#00913F"/>
</svg>
