<?xml version="1.0" encoding="utf-8"?>
<svg width="487" height="104" viewBox="0 0 487 104" fill="none" xmlns="http://www.w3.org/2000/svg">
<g clip-path="url(#clip0)">
<path d="M103.276 52.0033C103.276 71.5511 92.5677 88.5758 76.7392 97.4496C69.312 101.625 60.7505 104 51.6445 104C31.2468 104 13.6176 92.0996 5.22275 74.8038C1.88404 67.9178 0 60.18 0 52.0033C0 23.2847 23.1211 1.34119e-06 51.6381 1.34119e-06C80.1613 -0.00645227 103.276 23.2782 103.276 52.0033Z" fill="#38876F"/>
<path d="M90.5432 73.0787C83.2055 82.4365 75.8681 91.794 68.5306 101.152C68.5306 101.152 59.2706 103.998 51.6447 103.998C31.2472 103.998 13.618 92.0974 5.22311 74.8018C5.11417 74.1047 4.99883 73.4207 4.88989 72.7238C10.6958 63.4562 16.6811 54.0791 22.8588 44.6182C29.0364 35.1571 35.201 25.9027 41.3531 16.8612C45.9479 16.5127 50.5361 16.1578 55.1309 15.8093C64.5574 23.3085 73.9841 30.8009 83.4107 38.2936C82.9813 43.1145 82.9237 50.136 84.8781 58.2482C86.3585 64.4371 88.5757 69.4258 90.5432 73.0787Z" fill="url(#paint0_linear)"/>
<path d="M86.4034 11.591C82.7058 11.591 78.2778 14.1273 75.0479 15.9859C74.4583 16.3215 72.0231 17.7929 72.0231 18.0963C72.0231 18.406 74.2661 19.458 76.1565 19.9743C80.3604 21.1295 84.9744 21.3618 85.0192 21.3618C85.0256 21.4844 85.0256 21.6135 85.032 21.7361C85.0128 21.7426 82.975 22.304 79.9438 22.304C76.9703 22.304 74.0803 21.6974 71.3567 20.4906C70.6455 20.1743 69.9725 19.7677 69.4343 19.4322C68.1719 18.6577 67.0953 17.8446 66.2943 17.225C66.0443 17.0314 65.7751 16.8185 65.5061 16.599C64.8267 16.0569 64.1219 15.4955 63.6283 15.1663C60.2254 12.9205 56.5088 11.5781 53.6762 11.5781C42.7885 11.5781 36.2777 21.4457 36.2777 30.9842C36.2777 38.8382 39.1487 50.5838 43.7756 61.626C43.7756 61.626 45.1468 66.3113 50.126 73.9718C51.3628 75.8691 53.17 78.3989 54.4452 78.0051C54.7912 77.8955 54.9964 77.6051 55.0796 77.4824C57.3354 74.1135 57.534 69.1509 57.534 69.1509C58.8287 64.3944 60.1743 59.4704 61.9367 55.6498C64.1475 50.8549 66.7491 48.5251 69.8893 48.5251H70.1713C73.4267 48.5251 76.0925 50.8742 78.3098 55.7015C80.0784 59.5607 81.373 64.4849 82.6226 69.254C83.4108 72.2615 84.1606 75.1011 84.9744 77.4889C85.0192 77.6115 85.0256 78.1407 85.3524 78.3342C85.6856 78.528 86.147 78.2827 86.3072 78.1989C88.9282 76.7984 90.1138 73.9007 91.53 71.4031C95.0931 65.1367 97.2463 58.412 99.3097 51.5002C100.726 46.7633 102.116 41.9875 103.058 37.1151C103.45 35.1015 103.77 33.0429 103.77 30.9842C103.802 21.4586 97.2911 11.591 86.4034 11.591Z" fill="white"/>
<path d="M177.974 17.5059L170.15 25.018C164.824 19.3517 158.839 16.5185 152.187 16.5185C146.567 16.5185 141.838 18.4546 137.993 22.3202C134.148 26.186 132.226 30.9489 132.226 36.6151C132.226 40.5647 133.078 44.0625 134.783 47.128C136.487 50.1871 138.897 52.5942 142.011 54.3367C145.125 56.0856 148.586 56.9569 152.392 56.9569C155.641 56.9569 158.608 56.3438 161.293 55.124C163.979 53.8978 166.933 51.6778 170.156 48.4576L177.744 56.4278C173.399 60.6936 169.298 63.6558 165.44 65.3013C161.575 66.9536 157.167 67.7731 152.213 67.7731C143.075 67.7731 135.596 64.856 129.777 59.022C123.959 53.188 121.049 45.7082 121.049 36.5893C121.049 30.6907 122.376 25.4438 125.023 20.8554C127.676 16.2668 131.469 12.5818 136.41 9.7874C141.351 6.99945 146.67 5.60547 152.373 5.60547C157.218 5.60547 161.889 6.63805 166.375 8.7032C170.861 10.7684 174.725 13.6983 177.974 17.5059Z" fill="#38876F"/>
<path d="M191.118 66.2905H185.325V22.5156H195.95V48.2269L218.206 22.5156H223.442V66.2905H212.81V41.102L191.118 66.2905Z" fill="#38876F"/>
<path d="M276.738 4.68903V15.0729C273.618 15.4214 270.586 15.6085 267.645 15.6344C262.307 15.686 258.289 15.9248 255.592 16.3378C252.894 16.7573 250.517 17.7253 248.465 19.2355C246.408 20.7521 244.954 22.4944 244.102 24.4693C243.248 26.4442 242.723 29.2838 242.538 32.9816C245.691 25.3858 251.093 21.5846 258.757 21.5846C264.39 21.5846 269.267 23.6562 273.393 27.7993C277.515 31.9427 279.578 37.2862 279.578 43.8367C279.578 50.5936 277.367 56.2147 272.938 60.6936C268.51 65.1722 263.051 67.4118 256.541 67.4118C251.234 67.4118 246.563 65.7725 242.525 62.5005C238.489 59.2285 235.892 55.3304 234.746 50.8129C233.599 46.2956 233.027 41.4682 233.027 36.3504C233.027 29.7807 233.842 24.4307 235.47 20.3132C237.096 16.1958 239.237 13.1045 241.891 11.0394C244.544 8.97423 247.613 7.59316 251.106 6.89616C254.599 6.19916 259.732 5.70225 266.5 5.40538C271.087 5.19885 274.496 4.95363 276.738 4.68903ZM268.587 44.398C268.587 40.7518 267.499 37.7251 265.312 35.3242C263.128 32.9236 260.244 31.7231 256.662 31.7231C253.233 31.7231 250.396 32.93 248.145 35.3438C245.896 37.7573 244.775 40.7776 244.775 44.398C244.775 48.2058 245.89 51.2842 248.125 53.6333C250.363 55.9824 253.196 57.1569 256.616 57.1569C259.988 57.1569 262.828 55.9824 265.134 53.6333C267.435 51.2907 268.587 48.2122 268.587 44.398Z" fill="#38876F"/>
<path d="M306.872 6.2522H318.176L337.08 54.8609H343.623V74.2927H332.793V65.4382H292.357V74.2927H281.527V54.8609H288.032L306.872 6.2522ZM312.62 21.9474L299.747 54.8545H325.456L312.62 21.9474Z" fill="#1C1F20"/>
<path d="M393.378 46.73H358.337C358.842 49.8407 360.195 52.3189 362.392 54.1518C364.59 55.9847 367.39 56.9076 370.8 56.9076C374.875 56.9076 378.382 55.4747 381.31 52.6029L390.5 56.9462C388.212 60.2182 385.463 62.6382 382.272 64.2065C379.074 65.7747 375.279 66.562 370.883 66.562C364.065 66.562 358.509 64.3936 354.221 60.0634C349.936 55.7329 347.789 50.3054 347.789 43.7874C347.789 37.1078 349.929 31.564 354.204 27.1498C358.478 22.7356 363.842 20.5284 370.288 20.5284C377.133 20.5284 382.7 22.7356 386.987 27.1498C391.275 31.564 393.422 37.3918 393.422 44.6327L393.378 46.73ZM382.47 38.0822C381.753 35.6429 380.33 33.6551 378.209 32.1256C376.087 30.596 373.626 29.8345 370.826 29.8345C367.783 29.8345 365.115 30.6929 362.823 32.4096C361.38 33.4809 360.047 35.3718 358.818 38.0822H382.47Z" fill="#1C1F20"/>
<path d="M412.717 37.4362H429.021V21.6636H439.926V65.4385H429.021V47.2909H412.717V65.4385H401.811V21.6636H412.717V37.4362Z" fill="#1C1F20"/>
<path d="M446.354 21.6636H486.868V32.1249H472.403V65.4385H461.496V32.1249H446.354V21.6636Z" fill="#1C1F20"/>
<g opacity="0.8">
<path opacity="0.8" d="M134.9 99.9579H124.153V85.2308H125.602V98.5768H132.317V85.2308H133.766V98.5768H136.252V102.159H134.9V99.9579Z" fill="#1C1F20"/>
<path opacity="0.8" d="M138.681 85.2308H146.992V86.6699H140.129V91.2844H146.935V92.7235H140.129V98.5124H146.935V99.9515H138.681V85.2308Z" fill="#1C1F20"/>
<path opacity="0.8" d="M149.735 85.2308H151.183V91.4071H158.566V85.2308H160.014V99.958H158.566V92.8526H151.183V99.958H149.735V85.2308Z" fill="#1C1F20"/>
<path opacity="0.8" d="M162.365 86.678V85.2389H170.312V86.678H167.076V99.966H165.595V86.678H162.365Z" fill="#1C1F20"/>
<path opacity="0.8" d="M172.671 85.2308H175.561C177.214 85.2308 178.335 85.3019 178.912 85.4502C179.739 85.6568 180.418 86.0826 180.944 86.7282C181.469 87.3735 181.732 88.1802 181.732 89.1546C181.732 90.1355 181.475 90.9424 180.963 91.5813C180.45 92.2202 179.745 92.6459 178.842 92.8655C178.182 93.0268 176.958 93.1042 175.157 93.1042H174.119V99.9515H172.671V85.2308ZM174.119 86.6764V91.6715L176.573 91.7037C177.566 91.7037 178.291 91.6135 178.752 91.4264C179.213 91.2391 179.572 90.9488 179.835 90.5357C180.098 90.1291 180.232 89.6708 180.232 89.1611C180.232 88.6642 180.098 88.2188 179.835 87.8057C179.572 87.3993 179.226 87.1024 178.797 86.9346C178.367 86.7604 177.663 86.6764 176.682 86.6764H174.119Z" fill="#1C1F20"/>
<path opacity="0.8" d="M204.091 87.9707L202.95 88.8613C202.322 88.0289 201.56 87.3964 200.675 86.964C199.791 86.5316 198.817 86.3187 197.76 86.3187C196.6 86.3187 195.53 86.6027 194.543 87.164C193.556 87.7256 192.793 88.4871 192.248 89.4358C191.704 90.3844 191.435 91.4558 191.435 92.6431C191.435 94.4373 192.044 95.9344 193.254 97.1413C194.466 98.3418 195.997 98.942 197.843 98.942C199.874 98.942 201.573 98.1351 202.938 96.5218L204.078 97.406C203.354 98.3418 202.451 99.0644 201.374 99.5744C200.291 100.084 199.086 100.342 197.753 100.342C195.216 100.342 193.216 99.484 191.749 97.7673C190.518 96.3218 189.903 94.5729 189.903 92.5207C189.903 90.3651 190.646 88.5516 192.133 87.0802C193.62 85.6087 195.485 84.8731 197.728 84.8731C199.08 84.8731 200.304 85.144 201.393 85.6862C202.502 86.2218 203.393 86.9898 204.091 87.9707Z" fill="#1C1F20"/>
<path opacity="0.8" d="M206.871 85.2308H215.183V86.6699H208.319V91.2844H215.125V92.7235H208.319V98.5124H215.125V99.9515H206.871V85.2308Z" fill="#1C1F20"/>
<path opacity="0.8" d="M217.388 99.958L219.464 85.2308H219.701L225.598 97.3184L231.434 85.2308H231.666L233.756 99.958H232.332L230.896 89.4257L225.77 99.958H225.399L220.207 89.3482L218.785 99.958H217.388Z" fill="#1C1F20"/>
<path opacity="0.8" d="M236.695 85.2308H245.007V86.6699H238.145V91.2844H244.95V92.7235H238.145V98.5124H244.95V99.9515H236.695V85.2308Z" fill="#1C1F20"/>
<path opacity="0.8" d="M259.162 99.9589H257.658V88.6651L248.096 99.9589H247.77V85.2318H249.217V96.7191L258.843 85.2318H259.169V99.9589H259.162ZM249.974 81.708H251.274C251.499 82.0564 251.799 82.3146 252.172 82.4889C252.543 82.6631 252.993 82.7471 253.511 82.7471C254.037 82.7471 254.46 82.6695 254.78 82.5146C255.1 82.3598 255.407 82.0889 255.696 81.7015H256.958C256.81 82.3018 256.446 82.8051 255.85 83.2053C255.255 83.6118 254.471 83.812 253.498 83.812C252.532 83.812 251.742 83.6118 251.133 83.2182C250.526 82.8309 250.14 82.3211 249.974 81.708Z" fill="#1C1F20"/>
<path opacity="0.8" d="M262.867 85.2308H264.315V91.4071H271.698V85.2308H273.146V99.958H271.698V92.8526H264.315V99.958H262.867V85.2308Z" fill="#1C1F20"/>
<path opacity="0.8" d="M283.643 84.8633C285.841 84.8633 287.681 85.6055 289.159 87.0962C290.64 88.5871 291.377 90.4197 291.377 92.5946C291.377 94.7502 290.64 96.5766 289.159 98.0802C287.687 99.5839 285.885 100.333 283.757 100.333C281.604 100.333 279.792 99.5839 278.312 98.0866C276.831 96.5895 276.094 94.7824 276.094 92.6593C276.094 91.2459 276.434 89.9357 277.107 88.7224C277.78 87.5157 278.702 86.5671 279.863 85.8828C281.028 85.2053 282.283 84.8633 283.643 84.8633ZM283.707 86.2959C282.636 86.2959 281.617 86.5799 280.657 87.1477C279.695 87.7157 278.945 88.4837 278.406 89.4453C277.868 90.4068 277.599 91.4782 277.599 92.6657C277.599 94.4146 278.195 95.8924 279.395 97.0993C280.593 98.3062 282.027 98.9064 283.713 98.9064C284.841 98.9064 285.88 98.6288 286.84 98.0737C287.802 97.5188 288.546 96.7637 289.084 95.8022C289.623 94.8406 289.892 93.7693 289.892 92.5946C289.892 91.4266 289.623 90.3682 289.084 89.4195C288.546 88.4773 287.789 87.7222 286.816 87.1477C285.834 86.5799 284.797 86.2959 283.707 86.2959Z" fill="#1C1F20"/>
<path opacity="0.8" d="M305.777 99.9589H304.27V88.6651L294.709 99.9589H294.382V85.2318H295.832V96.7191L305.457 85.2318H305.784V99.9589H305.777ZM296.587 81.708H297.889C298.114 82.0564 298.414 82.3146 298.785 82.4889C299.157 82.6631 299.605 82.7471 300.124 82.7471C300.651 82.7471 301.073 82.6695 301.393 82.5146C301.715 82.3598 302.022 82.0889 302.311 81.7015H303.573C303.425 82.3018 303.061 82.8051 302.463 83.2053C301.867 83.6118 301.086 83.812 300.113 83.812C299.144 83.812 298.356 83.6118 297.747 83.2182C297.145 82.8309 296.754 82.3211 296.587 81.708Z" fill="#1C1F20"/>
<path opacity="0.8" d="M328.77 87.9707L327.629 88.8613C327.003 88.0289 326.239 87.3964 325.354 86.964C324.47 86.5316 323.496 86.3187 322.439 86.3187C321.279 86.3187 320.209 86.6027 319.222 87.164C318.236 87.7256 317.472 88.4871 316.927 89.4358C316.382 90.3844 316.113 91.4558 316.113 92.6431C316.113 94.4373 316.722 95.9344 317.934 97.1413C319.145 98.3418 320.676 98.942 322.523 98.942C324.553 98.942 326.252 98.1351 327.616 96.5218L328.757 97.406C328.033 98.3418 327.131 99.0644 326.054 99.5744C324.97 100.084 323.766 100.342 322.433 100.342C319.895 100.342 317.896 99.484 316.429 97.7673C315.197 96.3218 314.582 94.5729 314.582 92.5207C314.582 90.3651 315.325 88.5516 316.813 87.0802C318.3 85.6087 320.164 84.8731 322.406 84.8731C323.759 84.8731 324.984 85.144 326.072 85.6862C327.181 86.2218 328.073 86.9898 328.77 87.9707Z" fill="#1C1F20"/>
<path opacity="0.8" d="M330.436 86.678V85.2389H338.382V86.678H335.145V99.966H333.667V86.678H330.436Z" fill="#1C1F20"/>
<path opacity="0.8" d="M346.834 84.8633C349.034 84.8633 350.872 85.6055 352.352 87.0962C353.833 88.5871 354.57 90.4197 354.57 92.5946C354.57 94.7502 353.833 96.5766 352.352 98.0802C350.878 99.5839 349.078 100.333 346.95 100.333C344.797 100.333 342.983 99.5839 341.502 98.0866C340.022 96.5895 339.285 94.7824 339.285 92.6593C339.285 91.2459 339.625 89.9357 340.298 88.7224C340.971 87.5157 341.893 86.5671 343.054 85.8828C344.221 85.2053 345.483 84.8633 346.834 84.8633ZM346.9 86.2959C345.829 86.2959 344.81 86.5799 343.848 87.1477C342.888 87.7157 342.138 88.4837 341.599 89.4453C341.061 90.4068 340.792 91.4782 340.792 92.6657C340.792 94.4146 341.388 95.8924 342.586 97.0993C343.784 98.3062 345.22 98.9064 346.904 98.9064C348.034 98.9064 349.071 98.6288 350.033 98.0737C350.993 97.5188 351.737 96.7637 352.275 95.8022C352.813 94.8406 353.083 93.7693 353.083 92.5946C353.083 91.4266 352.813 90.3682 352.275 89.4195C351.737 88.4773 350.98 87.7222 350.007 87.1477C349.027 86.5799 347.994 86.2959 346.9 86.2959Z" fill="#1C1F20"/>
<path opacity="0.8" d="M356.607 99.958L358.683 85.2308H358.921L364.818 97.3184L370.654 85.2308H370.886L372.975 99.958H371.552L370.116 89.4257L364.99 99.958H364.619L359.427 89.3482L358.003 99.958H356.607Z" fill="#1C1F20"/>
<path opacity="0.8" d="M382.285 85.2308L389.046 99.958H387.484L385.202 95.1113H378.953L376.691 99.958H375.076L381.927 85.2308H382.285ZM382.106 88.3608L379.619 93.6915H384.58L382.106 88.3608Z" fill="#1C1F20"/>
<path opacity="0.8" d="M389.15 86.678V85.2389H397.096V86.678H393.859V99.966H392.378V86.678H389.15Z" fill="#1C1F20"/>
<path opacity="0.8" d="M405.547 84.8633C407.745 84.8633 409.585 85.6055 411.066 87.0962C412.546 88.5871 413.284 90.4197 413.284 92.5946C413.284 94.7502 412.546 96.5766 411.066 98.0802C409.592 99.5839 407.791 100.333 405.664 100.333C403.51 100.333 401.697 99.5839 400.216 98.0866C398.735 96.5895 397.998 94.7824 397.998 92.6593C397.998 91.2459 398.338 89.9357 399.011 88.7224C399.684 87.5157 400.606 86.5671 401.767 85.8828C402.932 85.2053 404.197 84.8633 405.547 84.8633ZM405.611 86.2959C404.541 86.2959 403.524 86.5799 402.562 87.1477C401.599 87.7157 400.851 88.4837 400.313 89.4453C399.775 90.4068 399.505 91.4782 399.505 92.6657C399.505 94.4146 400.101 95.8924 401.299 97.0993C402.498 98.3062 403.934 98.9064 405.618 98.9064C406.745 98.9064 407.785 98.6288 408.747 98.0737C409.7 97.5188 410.45 96.7637 410.989 95.8022C411.527 94.8406 411.796 93.7693 411.796 92.5946C411.796 91.4266 411.527 90.3682 410.989 89.4195C410.45 88.4773 409.693 87.7222 408.72 87.1477C407.74 86.5799 406.708 86.2959 405.611 86.2959Z" fill="#1C1F20"/>
<path opacity="0.8" d="M427.221 99.958H425.645L420.839 88.5802L415.956 99.958H414.378L420.691 85.2308H421.005L427.221 99.958Z" fill="#1C1F20"/>
<path opacity="0.8" d="M435.866 84.8633C438.064 84.8633 439.902 85.6055 441.383 87.0962C442.863 88.5871 443.6 90.4197 443.6 92.5946C443.6 94.7502 442.863 96.5766 441.383 98.0802C439.909 99.5839 438.108 100.333 435.981 100.333C433.827 100.333 432.013 99.5839 430.533 98.0866C429.054 96.5895 428.317 94.7824 428.317 92.6593C428.317 91.2459 428.655 89.9357 429.328 88.7224C430.001 87.5157 430.925 86.5671 432.084 85.8828C433.251 85.2053 434.513 84.8633 435.866 84.8633ZM435.93 86.2959C434.86 86.2959 433.84 86.5799 432.878 87.1477C431.918 87.7157 431.168 88.4837 430.63 89.4453C430.091 90.4068 429.822 91.4782 429.822 92.6657C429.822 94.4146 430.418 95.8924 431.616 97.0993C432.814 98.3062 434.251 98.9064 435.937 98.9064C437.064 98.9064 438.101 98.6288 439.063 98.0737C440.023 97.5188 440.767 96.7637 441.305 95.8022C441.844 94.8406 442.113 93.7693 442.113 92.5946C442.113 91.4266 441.844 90.3682 441.305 89.4195C440.767 88.4773 440.012 87.7222 439.037 87.1477C438.057 86.5799 437.025 86.2959 435.93 86.2959Z" fill="#1C1F20"/>
<path opacity="0.8" d="M448.036 99.958H446.586V85.2308H453.854V86.6699H448.036V99.958Z" fill="#1C1F20"/>
<path opacity="0.8" d="M467.619 99.958H466.112V88.6642L456.551 99.958H456.224V85.2308H457.672V96.7184L467.297 85.2308H467.626V99.958H467.619Z" fill="#1C1F20"/>
<path opacity="0.8" d="M482.735 99.958H481.23V88.6642L471.668 99.958H471.342V85.2308H472.789V96.7184L482.415 85.2308H482.741V99.958H482.735Z" fill="#1C1F20"/>
</g>
</g>
<defs>
<linearGradient id="paint0_linear" x1="22.0909" y1="90.7394" x2="84.3217" y2="31.4653" gradientUnits="userSpaceOnUse">
<stop offset="2.71717e-07" stop-color="#39876F"/>
<stop offset="1" stop-color="#124536"/>
</linearGradient>
<clipPath id="clip0">
<rect width="487" height="104" fill="white"/>
</clipPath>
</defs>
</svg>
