<?xml version="1.0" encoding="UTF-8" standalone="no"?>
<svg
   xmlns:dc="http://purl.org/dc/elements/1.1/"
   xmlns:cc="http://creativecommons.org/ns#"
   xmlns:rdf="http://www.w3.org/1999/02/22-rdf-syntax-ns#"
   xmlns:svg="http://www.w3.org/2000/svg"
   xmlns="http://www.w3.org/2000/svg"
   viewBox="0 0 486.88754 167.41756"
   id="svg31"
   height="167.41756"
   width="486.88754"
   version="1.1">
  <metadata
     id="metadata37">
    <rdf:RDF>
      <cc:Work
         rdf:about="">
        <dc:format>image/svg+xml</dc:format>
        <dc:type
           rdf:resource="http://purl.org/dc/dcmitype/StillImage" />
      </cc:Work>
    </rdf:RDF>
  </metadata>
  <defs
     id="defs35" />
  <g
     transform="translate(-51.378898,-50.582241)"
     id="Layer1000">
    <path
       id="path2"
       style="fill:#1b1918;fill-rule:evenodd;stroke:#1b1918;stroke-width:0.21600001;stroke-linecap:butt;stroke-linejoin:miter;stroke-dasharray:none"
       d="m 136.7654,214.0217 -43.8945,0.8677 c 0,0 -17.5751,-0.771 -24.2027,-8.1868 -6.6276,-7.4158 -11.1893,-18.0097 -8.2606,-30.1922 2.9288,-12.1826 4.6823,-14.3018 4.8266,-15.5534 0.1444,-1.2515 -2.786,0.8661 -6.7958,0.7947 -4.0097,-0.0713 -6.9302,-9.0175 -6.9155,-11.8225 0.0082,-1.6206 -0.0377,-4.9397 1.8708,-8.7174 1.3926,-2.7581 4.0327,-5.5401 7.4945,-9.1939 1.4648,-1.5468 9.0266,-8.1892 7.876,-16.5884 -0.5668,-4.136 -8.9955,-27.5333 -12.5164,-34.8121 -0.6389,-1.3213 -4.4542,-7.5618 -4.7454,-13.9451 -0.2575,-5.6336 2.7393,-11.4255 5.8059,-13.4415 2.7762,-1.824 6.6063,-2.5637 9.2283,-1.6493 2.9706,1.0367 4.8832,4.2689 7.9071,5.3261 2.759,0.9645 5.9182,0.5725 8.2647,0.6643 2.7934,0.1091 7.0147,-0.7234 10.3191,-1.9126 2.7475,-0.9891 4.6126,-3.7809 7.005,-4.5543 3.4954,-1.1302 7.2501,0.1854 9.3366,2.3596 1.6001,1.6682 4.7085,6.512 4.2861,10.972 -0.6168,6.5194 -1.3369,9.6204 -3.2732,13.8794 0.1304,7.5618 0.4248,19.08 1.2819,20.0298 13.6547,15.1318 18.5042,27.2832 21.7274,35.5208 4.1828,10.6882 2.3653,26.1497 3.4709,27.6686 6.8983,9.4818 9.6442,22.423 8.7149,40.4967 -0.1148,0.3657 0.9252,2.5104 4.3132,-0.3502 4.3854,-3.703 13.6055,-10.5538 22.6928,-9.9936 19.8854,1.2261 39.5092,15.5862 38.9064,16.5113 -0.4814,0.7381 -6.2061,5.3015 -15.4,6.3455 -9.2669,1.0523 -24.1806,-2.3858 -34.2077,-1.8552 -13.0601,0.6906 -24.0444,0.5331 -25.1164,1.332 z" />
    <path
       id="path4"
       style="fill:#ffffff;fill-rule:evenodd"
       d="m 114.1465,149.5446 c -0.1428,-2.5515 -0.8645,-3.2749 -1.0088,-3.8523 -0.1444,-0.5774 -0.2403,-1.7338 1.7288,-3.3708 1.9692,-1.637 9.5343,-4.0679 9.5343,-4.0679 0,0 -6.5546,3.3224 -7.6848,4.1171 -1.1302,0.7947 -2.8894,1.8413 -2.1381,3.8031 0.7512,1.9618 0.6348,4.4485 0.3879,5.6442 0.1255,-0.0377 0.2526,-0.0746 0.3814,-0.1066 3.8415,-0.9628 9.2201,8e-4 12.8698,1.2524 3.6497,1.2516 11.1417,5.2006 11.1417,5.2006 l 1.2483,4.6224 c 0,0 -3.4577,-1.733 -7.8759,-5.5853 -4.4182,-3.8522 -13.0626,-5.2014 -15.9438,-4.6232 -2.8812,0.5782 -10.3724,11.3641 -17.096,11.7495 -6.7236,0.3855 -5.956,-0.7709 -5.5713,-6.9344 0.3846,-6.1634 -3.4578,-15.9855 -5.1867,-18.1048 -1.7288,-2.1193 -6.1462,-2.8902 -12.1013,-13.8688 -5.9551,-10.9785 -2.4982,-27.1585 -2.1135,-27.9286 0.3846,-0.7701 2.4014,-2.3112 4.0343,-1.4443 1.6329,0.8669 0.6717,2.5999 3.6497,2.5999 2.9779,0 3.169,-1.2516 4.61,-2.7926 1.441,-1.5411 4.1303,-0.1928 3.9384,1.8297 -0.1919,2.0225 -0.3846,11.46 1.9208,15.0236 2.3055,3.5635 11.3345,13.1937 11.9103,14.5421 0.5757,1.3483 1.0555,3.7563 -0.3847,6.4529 -1.4402,2.6967 -4.802,11.9423 -4.5141,17.1428 0.2879,5.2006 2.6901,6.3546 6.0511,5.9708 2.5974,-0.2969 5.7902,-2.1743 6.8753,-3.247 0.8858,-0.8751 1.4074,-2.7656 1.3369,-4.0245 z" />
    <path
       id="path6"
       style="fill:#ffffff;fill-rule:evenodd"
       d="m 86.5229,170.009 c -0.0894,-0.027 -0.6783,-0.2961 -0.8546,-2.6958 -0.1911,-2.5991 -3.265,-8.5239 -5.1382,-10.2568 -1.8733,-1.733 -5.044,-4.3821 -8.405,-3.1781 -3.3609,1.204 -4.1286,4.1417 -4.8019,5.153 -0.6734,1.0112 -2.0168,0.8661 -2.1128,-1.2524 -0.0959,-2.1184 0.4331,-4.7191 2.4014,-7.5601 1.9684,-2.8411 3.6013,-3.8999 8.9799,-5.9708 5.3785,-2.0708 9.4129,-1.7813 11.1418,-0.5298 1.7288,1.2516 3.1215,3.4685 3.4093,8.5714 0.2879,5.103 -1.0563,13.6761 -2.0167,15.1204 -0.9604,1.4442 -1.7289,2.5039 -1.7289,2.5039 l -0.1304,0.0147 c 0.529,2.3063 2.0331,8.25 2.2431,10.5308 0.2395,2.6007 0.2657,8.9085 -0.0713,10.7145 -0.3371,1.8059 -2.8575,6.9819 -1.537,9.1242 1.3204,2.1422 4.1541,2.0938 6.5546,0.9866 2.4006,-1.1072 4.7061,-1.6838 6.9156,-1.7322 2.2095,-0.0483 5.691,1.6371 6.603,3.635 0.912,1.9978 1.2261,5.1284 0.5544,7.1263 -0.6717,1.9978 -1.8748,4.0449 -2.5474,3.6119 -0.6725,-0.433 1.7798,-2.5293 2.1611,-5.2252 0.3814,-2.6958 -0.1919,-5.2244 -1.8248,-6.8614 -1.6329,-1.637 -5.3302,-1.8297 -7.8759,-1.204 -2.5458,0.6258 -4.419,2.0234 -6.4358,2.1677 -2.0167,0.1444 -3.0722,-0.6266 -4.2254,-1.6862 -1.1531,-1.0597 -1.2482,-2.7926 -1.0563,-3.8039 0.1919,-1.0112 1.0563,-3.6111 1.8248,-6.2594 0.7685,-2.6483 0.3847,-9.294 0.1919,-10.931 -0.1927,-1.637 -0.8636,-4.5026 -1.0793,-5.9953 -0.1648,-1.1392 -0.8316,-3.2035 -1.1392,-4.118 z" />
    <path
       id="path8"
       style="fill:#ffffff;fill-rule:evenodd"
       d="m 79.0407,93.3018 c 0.5281,0.5774 0.2403,1.5887 -1.0564,1.3 -1.2967,-0.2887 -2.3054,-1.2516 -2.4014,-2.4072 -0.096,-1.1556 0,-3.1305 1.1047,-3.949 1.1048,-0.8185 1.7314,-0.2403 2.0176,0.1443 0.2863,0.3847 -0.1927,4.3346 0.3355,4.9119 z" />
    <path
       id="path10"
       style="fill:#ffffff;fill-rule:evenodd"
       d="m 86.8018,93.3018 c -0.5282,0.5774 -0.2403,1.5887 1.0563,1.3 1.2967,-0.2887 2.3055,-1.2516 2.4014,-2.4072 0.096,-1.1556 0,-3.1305 -1.1047,-3.949 -1.1048,-0.8185 -1.7314,-0.2403 -2.0176,0.1443 -0.2862,0.3847 0.1927,4.3346 -0.3354,4.9119 z" />
    <path
       id="path12"
       style="fill:#ffffff;fill-rule:evenodd"
       d="m 75.1023,85.7417 c 0.4322,0.7225 -0.9112,3.3232 -4.177,4.2377 -3.2659,0.9145 -4.7536,1.3475 -7.2034,-0.7226 -2.4498,-2.07 -1.8741,-2.3595 -3.6505,-3.4667 -1.7765,-1.1072 -2.1611,-1.1072 -2.7853,-4.5265 -0.6241,-3.4192 -1.8724,-9.7753 -2.6409,-12.1349 -0.7684,-2.3596 0.2403,-8.5714 0.9604,-10.2085 0.7201,-1.637 2.2087,-4.236 4.0819,-5.0554 1.8733,-0.8193 5.7632,-0.8669 8.4041,0.7701 2.6409,1.6371 4.419,3.6596 5.9552,4.3337 1.5148,0.6644 16.85,0.3453 17.6381,0 1.5362,-0.6741 3.3143,-2.6966 5.9552,-4.3337 2.6409,-1.637 6.5308,-1.5894 8.4041,-0.7701 1.8732,0.8194 3.3618,3.4184 4.0819,5.0554 0.7201,1.6371 1.7288,7.8489 0.9604,10.2085 -0.7685,2.3596 -2.0168,8.7157 -2.6409,12.1349 -0.6242,3.4193 -1.0088,3.4193 -2.7853,4.5265 -1.7764,1.1072 -1.2007,1.3967 -3.6505,3.4667 -2.4498,2.0701 -3.9375,1.6371 -7.2034,0.7226 -3.2658,-0.9145 -4.6092,-3.5152 -4.177,-4.2377 0.4322,-0.7226 3.986,0.0713 5.81,-1.4927 1.824,-1.564 1.4885,-4.8635 -0.8161,-5.8272 -2.3046,-0.9637 -3.4586,0.579 -6.5317,3.8539 -3.0731,3.2749 -3.7235,2.4309 -3.7464,4.1877 -0.0107,0.8218 0.205,2.8845 -0.3232,3.9408 -0.5454,1.0917 -1.9019,1.1392 -2.1389,1.1392 h -0.0017 -0.0032 -0.0033 -0.0033 -0.0057 -9e-4 -0.0073 -0.0033 -0.0025 -0.0033 c -0.2296,0 -1.5911,-0.0434 -2.1389,-1.1392 -0.5282,-1.0571 -0.3125,-3.119 -0.3232,-3.9408 -0.0229,-1.7568 -0.6733,-0.9128 -3.7464,-4.1877 -3.0731,-3.2749 -4.2271,-4.8176 -6.5317,-3.8539 -2.3046,0.9637 -2.6401,4.2632 -0.8161,5.8272 1.8241,1.564 5.3778,0.7701 5.81,1.4927 z M 74.7669,64.4103 c -4.0819,0.3855 -7.4913,1.6371 -10.4209,4.3337 -2.9296,2.6967 -3.9384,6.0191 -3.9859,8.1376 -0.0476,2.1184 1.0079,2.02 2.1602,1.4918 1.1524,-0.5281 2.5458,-3.4659 6.5317,-5.103 3.986,-1.637 7.2518,-0.9152 9.4605,-0.0483 2.2087,0.8669 2.3054,4.4312 2.7852,4.8635 0.31,0.2804 1.1187,0.2247 1.5394,0.2337 0.7013,0.0164 1.3328,0.0041 1.5969,-0.2337 0.3387,-0.3051 0.5766,-3.9966 2.7852,-4.8635 2.2087,-0.8669 5.4745,-1.5887 9.4605,0.0483 3.9859,1.6371 5.3794,4.5749 6.5317,5.103 1.1523,0.5282 2.2078,0.6266 2.1602,-1.4918 -0.0475,-2.1185 -1.0563,-5.4409 -3.9859,-8.1376 -2.9296,-2.6966 -7.4462,-4.0532 -10.4208,-4.3337 -5.1891,-0.4888 -10.9983,-0.4904 -16.198,0 z m 30.8451,4.3337 c 0.9603,2.7443 1.5361,3.8998 2.7852,3.6112 1.2491,-0.2887 1.7773,-5.0079 1.441,-7.5602 -0.4831,-3.671 -2.7393,-9.1422 -7.3961,-8.5222 -2.1611,0.2879 -2.449,1.733 -2.449,2.7442 0,0.4495 2.0085,2.358 3.3544,4.5109 1.3451,2.1529 2.0323,4.5526 2.2645,5.2161 z m -45.4922,0 c -0.9604,2.7443 -1.5362,3.8998 -2.7853,3.6112 -1.2491,-0.2887 -1.7773,-5.0079 -1.441,-7.5602 0.4831,-3.671 2.7393,-9.1422 7.3961,-8.5222 2.1611,0.2879 2.449,1.733 2.449,2.7442 0,0.4495 -2.0085,2.358 -3.3544,4.5109 -1.3451,2.1529 -2.0323,4.5526 -2.2644,5.2161 z" />
    <path
       id="path14"
       style="fill:#009035;fill-rule:evenodd"
       d="m 208.0488,177.8046 -1.2501,11.8757 h -29.7935 c 0,0 -13.0785,-5.5774 -14.7767,-17.0334 -2.6241,-17.6984 3.4942,-36.7367 15.819,-44.9504 8.4404,-5.6253 13.7506,-5.7288 22.2925,-5.7288 8.5419,0 16.0427,0.2084 16.0427,0.2084 l -0.2084,10.4173 c 0,0 -5.3144,-1.1458 -12.0829,1.353 -11.6258,4.2919 -24.9528,28.6988 -14.3771,39.2745 5.0003,5.0004 8.2191,5.4655 18.3345,4.5837 z" />
    <path
       id="path16"
       style="fill:#009035;fill-rule:evenodd"
       d="m 211.7078,152.5436 -0.1041,-9.2588 26.424,0.2081 c 0,0 -4.6814,25.6958 -4.8894,27.3603 -0.2081,1.6645 0,3.9532 1.5604,3.7451 1.5605,-0.2081 3.017,-2.9129 4.0573,-7.2822 1.0403,-4.3693 4.6814,-23.9272 4.6814,-23.9272 l 20.9103,0.208 -8.5306,46.5021 -20.7022,-0.104 0.3121,-4.0573 c 0,0 -3.4331,2.8089 -5.9298,3.7452 -2.4968,0.9362 -13.7291,-0.0213 -14.3564,-0.1041 -2.4939,-0.3291 -4.4733,-4.0572 -4.8895,-7.2822 -0.4161,-3.2249 3.7452,-21.5345 4.4734,-24.4474 0.7282,-2.9129 -0.3121,-4.4733 -1.2484,-4.8895 -0.9363,-0.4161 -1.7685,-0.4161 -1.7685,-0.4161 z" />
    <path
       id="path18"
       style="fill:#009035;fill-rule:evenodd"
       d="m 292.4291,189.8887 -31.4603,0.2083 9.3756,-53.9617 c 0,0 3.1252,-8.5422 9.5839,-9.1673 6.4588,-0.625 22.0848,0.2084 22.0848,0.2084 v 8.3338 c 0,0 -6.4588,-0.625 -8.3339,0 -1.8751,0.6251 -3.3335,4.3753 -1.8751,6.2504 1.4584,1.8751 4.3753,1.6668 10.209,3.1252 5.8337,1.4585 11.0423,7.5005 11.459,12.0841 0.4167,4.5836 -1.0417,17.0844 -7.0838,23.1265 -6.042,6.042 -13.9592,9.7923 -13.9592,9.7923 z m -0.7727,-19.4525 c -0.8835,2.5464 -2.5492,5.7226 -3.5895,6.3468 -1.0403,0.6241 -2.9129,1.0403 -2.9129,0.3121 0,-0.7283 2.0268,-18.3087 2.6008,-19.662 0.574,-1.3533 3.3815,-2.6008 4.3693,-1.2484 0.9879,1.3524 0.4159,11.7051 -0.4677,14.2515 z" />
    <path
       id="path20"
       style="fill:#1b1918;fill-rule:evenodd;stroke:#1b1918;stroke-width:0.21600001;stroke-linecap:butt;stroke-linejoin:miter;stroke-dasharray:none"
       d="m 324.582,192.5957 -15.1886,0.1041 -0.1041,-13.8362 h 7.6984 L 332.5924,134.13 h -4.2653 v -12.8996 h 37.7124 v 54.1999 c 0,0 0.6752,2.393 2.9639,2.8091 2.2887,0.4161 2.0806,0.4161 2.0806,0.4161 v 14.9806 h -16.749 c 0,0 -1.2484,-4.1613 -5.5137,-4.6815 -4.2653,-0.5201 -17.8934,-0.312 -17.8934,-0.312 0,0 -5.8258,1.3524 -6.3459,3.9531 z m 5.1411,-15.4162 h 10.6257 v -26.4597 z" />
    <path
       id="path22"
       style="fill:#1b1918;fill-rule:evenodd;stroke:#1b1918;stroke-width:0.21600001;stroke-linecap:butt;stroke-linejoin:miter;stroke-dasharray:none"
       d="m 408.6394,175.8467 v 10.4028 c 0,0 -2.9129,2.289 -6.9701,3.2253 -4.0572,0.9363 -19.0378,-0.104 -21.2224,-0.7282 -2.1847,-0.6242 -7.9064,-4.8895 -9.4669,-12.4838 -1.5605,-7.5943 -0.8323,-16.3329 5.9298,-23.7192 7.3108,-7.9857 12.8991,-10.7407 23.2441,-10.7198 3.4262,0.007 6.3527,0.1466 8.5405,1.7828 5.25,3.9265 6.8346,12.2125 5.2506,20.5885 -0.7279,3.8486 -1.9766,4.6815 -1.9766,4.6815 l -21.6385,0.3121 c -2.001,0.0286 -2.0733,3.2054 -0.6421,5.0828 0.5599,0.7341 1.6149,1.1823 2.4766,1.2965 5.6628,0.7512 16.475,0.2787 16.475,0.2787 z m -17.4209,-17.3843 c 0,0 -0.5187,1.1931 2.075,1.2449 2.5937,0.0519 4.3055,0.2075 4.6168,-1.1412 0.3112,-1.3487 0.4668,-4.4093 -0.4669,-5.1355 -0.9337,-0.7263 -3.3718,-0.7263 -3.9424,-0.2594 -0.5706,0.4669 -2.3344,2.6456 -2.2825,5.2912 z" />
    <path
       id="path24"
       style="fill:#1b1918;fill-rule:evenodd;stroke:#1b1918;stroke-width:0.21600001;stroke-linecap:butt;stroke-linejoin:miter;stroke-dasharray:none"
       d="m 415.6095,142.3468 -0.2081,9.7807 c 0,0 2.1847,0.9366 2.4968,2.3927 0.3121,1.4562 -5.8782,35.5768 -5.8782,35.5768 h 21.2513 l 3.0405,-21.2204 c 0,0 1.0403,-2.0807 3.329,-1.5605 2.2887,0.5202 2.4967,0.9363 2.3927,2.4968 -0.104,1.5604 -2.3927,19.87 -2.3927,19.87 h 19.766 l 7.825,-47.0889 h -19.7921 l -3.1484,16.217 -5.2435,0.0383 2.4528,-16.4653 z" />
    <path
       id="path26"
       style="fill:#1b1918;fill-rule:evenodd"
       d="m 467.7293,152.8557 1.7685,-10.8193 22.4708,-0.3121 c 0,0 -0.5201,4.4734 0.8323,4.6815 1.3524,0.208 5.6177,-4.7855 12.3797,-4.3694 6.7621,0.4162 8.6372,3.5397 9.2078,4.214 0.5706,0.6744 2.471,0.8326 2.9642,0.2081 2.9945,-3.7902 6.5168,-5.0973 14.8757,-4.2656 4.2437,0.4221 6.1355,2.9302 6.0343,5.5653 -0.1012,2.6351 -5.9949,38.3541 -6.601,42.0287 h -18.5448 l 5.1599,-33.0253 c 0.3906,-2.1787 -4.4581,-3.2162 -5.2087,0 l -5.7435,33.0253 h -19.3604 l 6.5611,-31.9836 c 0.5873,-2.9407 -3.8554,-3.8435 -4.5836,0 l -7.0849,31.9836 h -18.781 l 6.073,-31.9836 c 0,0 0.8002,-2.2459 0.1258,-3.854 -0.6743,-1.6081 -2.5452,-1.0936 -2.5452,-1.0936 z" />
    <path
       id="path28"
       style="fill:#009035;fill-rule:evenodd"
       d="m 252.9028,217.8255 h -3.9208 l -5.6634,-7.5804 -0.0655,7.5804 H 240.16 v -15.2478 h 3.0931 v 6.5129 l 5.5763,-6.5129 h 3.6814 l -6.3604,6.9049 z m 43.4895,0 h -3.0932 v -12.547 h -4.03 v 3.0498 c 0,2.3669 -0.0434,3.9572 -0.1307,4.7704 -0.1743,1.5829 -0.5519,2.759 -1.1327,3.5289 -0.6971,0.9147 -1.7572,1.3722 -3.1802,1.3722 -0.2758,0 -0.5156,-0.011 -0.7189,-0.0328 -0.2032,-0.0216 -0.4575,-0.0689 -0.7625,-0.1415 l 0.131,-2.4179 c 0.0725,0.0144 0.2032,0.0362 0.3991,0.0654 0.1961,0.029 0.3342,0.0434 0.4212,0.0434 0.864,0 1.4485,-0.5953 1.7535,-1.7861 0.2143,-0.8422 0.3232,-2.1855 0.3232,-4.0297 v -0.2614 c 0,-0.2761 0,-0.5519 0,-0.8277 0,-0.2761 0,-0.5519 0,-0.828 v -0.2395 -4.9663 h 10.0202 z m 46.3427,0 h -3.0931 v -7.8636 l 0.0654,-3.6813 -1.1109,2.3091 -5.3804,9.2358 h -3.7032 v -15.2478 h 3.0932 v 7.8417 l -0.0652,3.7029 1.1543,-2.2218 5.3367,-9.3228 h 3.7032 z m 45.4933,0 h -3.0932 v -6.6002 h -6.1863 v 6.6002 h -3.0932 v -15.2478 h 3.0932 v 6.1426 h 6.1863 v -6.1426 h 3.0932 z m 46.3427,0 h -3.0931 v -7.8636 l 0.0654,-3.6813 -1.1109,2.3091 -5.3804,9.2358 h -3.7032 v -15.2478 h 3.0932 v 7.8417 l -0.0652,3.7029 1.1543,-2.2218 5.3367,-9.3228 h 3.7032 z m 45.8635,0 h -3.9209 l -5.6634,-7.5804 -0.0654,7.5804 h -3.0932 v -15.2478 h 3.0932 v 6.5129 l 5.5763,-6.5129 h 3.6813 l -6.3604,6.9049 z m 46.2121,0 h -3.4852 l -1.2853,-3.42 h -6.2952 l -1.2852,3.42 h -3.3108 l 6.0771,-15.2478 h 3.5289 z m -5.6852,-5.9468 -2.2436,-6.2297 -2.1566,6.2297 z" />
  </g>
</svg>
